<?xml version="1.0" encoding="utf-8"?>
<!-- Generator: Adobe Illustrator 24.0.0, SVG Export Plug-In . SVG Version: 6.00 Build 0)  -->
<svg version="1.1" id="Capa_1" xmlns="http://www.w3.org/2000/svg" xmlns:xlink="http://www.w3.org/1999/xlink" x="0px" y="0px"
	 viewBox="0 0 592 231" style="enable-background:new 0 0 592 231;" xml:space="preserve">
<style type="text/css">
	.st0{fill:#6F7857;}
	.st1{fill:#C2996D;}
	.st2{fill:none;stroke:#203524;stroke-width:4;}
	.st3{fill:#575756;}
	.st4{font-family:'KarolSans-SemiBold';}
	.st5{font-size:37.0575px;}
</style>
<path class="st0" d="M108.3,122.3c-1,0.9-1.3,2.2-2.2,3.3c-0.8-0.9-0.8-2.2-1.6-3c1.1-2.4,2.8-4.4,4.6-6.2c2.7-2.8,5.4-5.6,8.2-8.4
	c3.9-3.9,6.1-8.5,6.4-14c0-0.7,0.1-1.4,0.2-2.1c0.1-0.8,0.5-1.5,1.1-1.9c0.4-0.3,0.9-0.7,1.5-0.5c0.5,0.3,0.3,0.9,0.3,1.3
	c0,4.4,0.1,8.9,0,13.3c-0.1,5.9-2,11.3-5.4,16.1c-0.3,0.5-0.6,0.9-0.9,1.4c-0.6,0.5-1.2,1.1-1.6,1.9c-1.5,1.2-2.9,2.7-4.2,4.2
	c-0.5,0.3-1,0.7-1.2,1.3c-0.7,0.4-1.2,1-1.6,1.7c-1.5,1-2.4,2.6-4,3.6c-0.1-0.5-0.1-0.8-0.2-1.1c-0.6-1.7-0.2-3,1.2-4
	c0.4-0.3,0.6-0.7,0.9-1.1c0.6-0.3,1-0.8,1.4-1.4c0.4-0.2,0.7-0.4,0.8-0.8c2.4-2.2,4.7-4.4,6.6-7c3.2-4.3,4.9-9.2,5.2-14.6
	c-0.2,0.1-0.4,0.1-0.5,0.2c-2.5,4.6-6.3,7.9-9.8,11.6c-1.3,1.4-2.8,2.5-3.8,4.2C109.1,120.8,108.6,121.4,108.3,122.3L108.3,122.3
	L108.3,122.3z"/>
<path class="st0" d="M72.6,88.6c0-0.9-0.7-1.6-1.6-1.6c-3.4,0-6.8,0-10.2-0.1c-3.9,0-7.9,0.2-11.8,0c-3.3-0.1-6.1-2.5-7.1-5.6
	c-1-3.2-0.1-6.5,2.4-8.8c1.7-1.5,3.7-2.1,5.9-2.1c5.4,0,10.9,0,16.3,0c3.9,0,7-3.3,7-7.2c0-2.3,0-4.6,0-7c0-5.4-0.1-3.2,0-8.7
	c0.1-4,2.7-7.3,6.3-8.5c3.6-1.1,7.4,0.1,9.8,3.2c1.9,2.5,2.2,5.2,1.5,8.2c-0.1,0.3-0.2,0.5-0.3,0.8c-0.4,1.3-0.2,2.2,0.7,2.5
	c0.9,0.4,1.7-0.1,2.2-1.3c1.5-4.3,1.1-8.3-1.6-12c-2.6-3.6-6.3-5.3-10.6-4.9c-6.4,0.6-10.9,5.7-11.1,12.3c-0.1,2,0,4.1,0,6.1
	c0,5.3,0,3,0,8.2c0,3.7-1.8,5.3-5.1,5.2c-0.6,0-1.2,0-1.9,0c-4.7,0-9.4,0-14.1,0c-5,0-9.2,3.4-10.6,8.2c-1.4,4.9,0.5,9.9,4.7,12.7
	c2,1.3,4.3,1.9,6.7,1.9c4.9,0,9.8,0.1,14.7,0.1c2,0,4,0,6,0C71.9,90.3,72.6,89.5,72.6,88.6"/>
<path class="st0" d="M138.9,90.2c4.6,0,9.1,0,13.7,0c2.8,0,5.3-0.7,7.6-2.4c5.4-4.1,5.9-12.1,1.5-16.9c-2.2-2.4-4.9-3.6-8.1-3.6
	c-5.4,0-10.8,0-16.1,0c-3.3,0-4.8-1.5-4.8-4.9c0-0.6,0-1.3,0-1.9c0-6.8,0-6.1,0-12.9c0-7.1-6.2-12.7-12.9-12.2
	C113,36.1,107.3,42,108.5,50c0.1,1,0.4,1.9,0.9,2.8c0.5,1,1.3,1.3,2,0.9c0.8-0.4,1-1.1,0.8-1.9c-0.2-0.7-0.4-1.3-0.5-2
	c-1.2-5.6,2.9-10.9,8.5-11.1c5.1-0.2,9.3,3.9,9.4,9.2c0.1,7.5,0,7.3,0,14.8c0,0.8,0,1.7,0.2,2.5c0.8,3.1,3.4,5.2,6.7,5.3
	c5.4,0,10.9,0,16.3,0c2.6,0,4.9,0.8,6.7,2.8c2.3,2.5,2.7,5.5,1.5,8.6c-1.2,3.1-3.6,5-7,5.1c-3.4,0.1-6.9,0-10.3,0c-3.5,0-7,0-10.5,0
	c-0.9,0-1.6,0.7-1.6,1.6c0,0.9,0.7,1.6,1.6,1.6L138.9,90.2L138.9,90.2L138.9,90.2z"/>
<path class="st1" d="M78.6,80.2c-9,0-18.1,0-27.1,0c-0.6,0-1.2,0-1.9,0c-0.9-0.1-1.4-0.6-1.4-1.5c0-0.9,0.6-1.4,1.4-1.5
	c0.5-0.1,1.1,0,1.7,0c5,0,9.9,0,14.9,0c8.1,0,14-5.9,14-14.2c0-7,0-6.3,0-13.3c0-0.7,0-1.4,0.1-2.1c0.2-1.2,1.2-2,2.3-2
	c1.1,0,1.9,0.7,2.2,1.9c0.1,0.2,0,0.4,0.1,0.6c0.3,1.2,0.9,1.8,1.8,1.7c1-0.1,1.5-1,1.4-2.2c-0.3-3.9-4.6-6.3-8-4.4
	c-2.1,1.2-2.9,3.1-2.8,5.5c0,7,0,6.5,0,13.5c0,1.1,0,2.3-0.3,3.4c-1,4.4-3.6,7.2-7.9,8.3c-1.2,0.3-2.5,0.3-3.7,0.3
	c-5.2,0-10.3,0-15.5,0.1c-2.9,0-4.8,2-4.7,4.7c0.1,2.6,1.9,4.4,4.7,4.6c0.8,0,1.5,0,2.3,0c1.7,0.1,3.3-0.1,5,0.1
	c4.8-0.3,9.6-0.1,14.5-0.1c2.6,0,5.2-0.1,7.8,0.1c1.7,0.1,3.2,0.6,4.5,1.5h4.4C86.1,82.1,82.6,80.2,78.6,80.2"/>
<path class="st1" d="M124.3,83.4c4.7,0,9.4,0,14.1,0v0c4.6,0,9.2,0,13.9,0c0.8,0,1.5,0,2.3-0.2c2.6-0.7,4-3.3,3.2-5.9
	c-0.7-2.2-2.3-3.3-5-3.3c-5.2,0-10.3,0-15.5,0c-1.2,0-2.5,0-3.7-0.4c-4.7-1.4-7.7-5.5-7.7-10.8c0-7.5,0-7.3,0-14.8
	c0-3.8-3.1-6.3-6.7-5.5c-2.3,0.5-4.1,2.8-4.1,5.1c0,1.2,0.5,1.9,1.4,2c1,0,1.5-0.5,1.6-1.5c0-0.3,0.1-0.6,0.2-0.8
	c0.4-1.2,1.2-1.8,2.3-1.8c1.1,0,2,0.7,2.2,1.9c0.1,0.6,0.1,1.3,0.1,1.9c0,7.2,0,6.8,0,13.9c0,1,0,2,0.3,2.9
	c1.4,6.5,6.7,10.9,13.2,10.9c5.2,0.1,10.3,0,15.5,0c0.5,0,1.1,0,1.6,0.1c0.9,0.1,1.4,0.7,1.3,1.6c-0.1,0.8-0.5,1.3-1.3,1.4
	c-0.7,0.1-1.4,0.1-2.1,0.1c-8.8,0-17.7,0-26.5,0c-1.5,0-3,0.2-4.5,0.7c-2.4,0.8-4.4,2.3-5.9,4.3l4.2,0
	C120.3,84,122.1,83.4,124.3,83.4"/>
<path class="st0" d="M157.9,47.7c-2.9,0.8-4.4,3.8-3.4,6.7c0.5,1.3,1.3,2.3,2.7,2.6c0.7,0.1,1.3,0,1.6-0.7c0.3-0.6,0.3-1.2-0.1-1.8
	c-0.2-0.2-0.4-0.3-0.6-0.5c-1.2-1.2-0.9-2.6,0.7-3.2c1.8-0.6,3.8,0.8,4.1,2.8c0.6,3.5-2.2,6.3-5.6,5.7c-2.4-0.4-3.8-2-4.5-4.2
	c-1.3-4-5.3-6.6-9.6-6.6c-2.5,0-4.7,0.7-6.7,2.3c-0.7,0.5-1.2,1.1-1.3,2.1c-0.1,0.9,0,1.8,0.9,2.2c0.9,0.5,1.1-0.6,1.5-1.1
	c3.5-3.8,11-3,12.5,2.3c0.4,1.3,1.1,2.5,2,3.4c2.3,2.5,5.1,3.2,8.3,2.5c3.1-0.7,4.8-2.8,5.5-5.9c0.2-1,0.2-2,0.1-2.9
	C165.6,49.4,161.7,46.6,157.9,47.7"/>
<path class="st0" d="M38.3,50c-1.6,2.8-1.6,5.8-0.2,8.6c1.4,2.7,3.7,3.9,7.7,3.9c1.5,0,3.6-0.9,5.4-2.8c0.9-1,1.5-2.3,2-3.6
	c0.9-2.5,2.7-3.8,5.2-4.2c3-0.5,5.6,0.3,7.6,2.8c0.7,0.9,1.1,0.8,1.6-0.2c0.6-1.1,0.4-2.2-0.6-3.2c-1-1-2.1-1.5-3.4-2
	c-4.3-1.7-11.3-0.3-13.4,6c-0.2,0.7-0.6,1.4-1,2c-1.4,1.9-3.9,2.7-6.1,1.9c-1.9-0.7-3-2.6-2.9-5.1c0.1-1.6,0.9-2.6,2.3-3.1
	c1.2-0.4,2.4-0.1,3,0.8c0.6,0.9,0.4,1.4-0.8,2.6c-0.6,0.6-0.9,1.3-0.4,2.1c0.4,0.7,1.3,1,2.2,0.5c1.4-0.7,2.2-1.9,2.4-3.5
	c0.3-2.5-0.9-4.6-3.3-5.5C43.1,47,39.4,48,38.3,50"/>
<path class="st1" d="M99.8,59.2c-0.7-1-1.4-1.9-2.1-2.8c-1.3-1.5-2.5-1.6-4.5-0.7c0.6,0.6,1.2,1.1,1.7,1.6c2.6,2.6,4.3,5.8,5,9.5
	c0.4,1.9,0.4,3.8,0.4,5.6c0,0.9,0.3,1.2,1.1,1.2c1.4,0,1.5-0.1,1.5-1.5c0-0.5,0-1.1,0-1.6c0.1-5.3,2-9.8,5.8-13.5
	c0.3-0.3,0.5-0.5,0.8-0.7c0.4-0.5,0.2-0.8-0.2-0.9c-1.4-0.4-2.6-0.2-3.6,0.9c-0.6,0.7-1.2,1.5-1.8,2.3c-0.2,0.3-0.3,0.9-0.9,0.7
	v-2.4c0-2.3,0-4.6,0-6.9c0-0.4,0.1-1-0.3-1.1c-0.6-0.2-1.3-0.2-1.9,0c-0.6,0.2-0.3,0.9-0.3,1.3c0,2.5,0,5,0,7.5
	C100.2,58.1,100.4,58.7,99.8,59.2"/>
<path class="st0" d="M97.7,72.4c0.2-2.7-1.1-4.8-3.4-6c-0.8-0.4-1.1-0.8-0.7-1.6c0.1-0.3,0.3-0.7,0.3-1c0.7-3.7-2.2-6.9-5.7-6.4
	c-1.4,0.2-2.5,0.9-3.2,2.1c-0.4,0.7-0.4,1.4,0.1,2c0.4,0.4,0.9,0.7,1.5,0.4c0.4-0.2,0.7-0.4,1-0.7c0.7-0.7,1.4-0.8,2.2-0.3
	c0.9,0.5,1.2,1.5,0.9,2.6c-0.4,1.3-1.4,2.2-2.9,2.4c-0.9,0.1-1.8,0-2.7,0c-1.6,0-1.7,0-2.1,1.6c-0.8,3.1-2.2,5.9-4.6,8.1
	c-0.3,0.3-0.8,0.6-0.9,1.3c0.8,0.1,1.6,0,2.4,0.2c1.1,0.3,1.8-0.2,2.4-1.1c1.3-1.8,2.4-3.8,3.1-5.9c0.3-0.8,0.7-1.1,1.5-1.1
	c1.3,0,2.6-0.1,3.9,0c1.7,0.1,3.1,1.2,3.5,2.5c0.4,1.4-0.7,2.9-2,2.8c-0.7-0.1-1.1-0.6-1.5-1c-0.7-0.6-1.4-0.7-2,0
	c-0.7,0.6-0.6,1.4-0.2,2.1c0.3,0.6,0.8,1,1.3,1.3C93.1,78.6,97.5,76.2,97.7,72.4"/>
<path class="st0" d="M115.6,61.3c0.7,0.6,1.4,0.8,2.2,0.2c0.7-0.6,0.7-1.5,0-2.4c-0.8-1-1.8-1.5-3-1.7c-3.5-0.4-6.3,2.6-5.5,6.3
	c0.4,1.7,0.2,2.5-1.4,3.4c-2.1,1.2-2.8,3.4-2.4,5.9c0.3,2.1,1.5,3.4,3.4,4.1c2.1,0.8,4.5,0,5.4-1.8c0.5-0.9,0.4-1.8-0.4-2.2
	c-0.9-0.6-1.5-0.1-2.2,0.5c-1,0.9-1.7,0.9-2.5,0.2c-0.9-0.7-1-1.8-0.4-2.9c0.7-1.3,1.9-1.8,3.3-1.9c1.3-0.1,2.6,0,3.9-0.1
	c0.8,0,1.3,0.3,1.5,1.1c0.5,1.7,1.4,3.2,2.3,4.7c1,1.7,2.1,2.9,4.3,2.2c0.4-0.1,0.8-0.1,1.2-0.1c0.1-0.1,0.1-0.2,0.2-0.4
	c-3.1-2.6-4.9-5.9-5.7-9.8c-0.2-0.7-0.5-0.9-1.2-0.9c-1.1,0-2.2,0-3.3,0c-1.4-0.1-2.5-1-2.9-2.3c-0.3-0.9-0.1-1.7,0.5-2.3
	C113.6,60.2,114.3,60.3,115.6,61.3"/>
<path class="st1" d="M141.7,35.2c-0.6-0.4-1.2,0-1.8,0.2c-0.7,0.3-1.2,0.9-1.5,1.7c-0.2,0.7-0.4,1.4-0.6,2c-0.5,1.3-0.3,3-1.7,3.9
	c-0.3,0.2-0.1,0.7,0,1c0.2,0.6,0.4,1.2,0.7,1.9c5.5-1.3,10.8-1.7,15.7,1.6c0.7,0.4,1.1,0.1,1.4-0.4c0.4-0.6,1.5-1,0.8-1.8
	c-0.6-0.7-0.3-1.3-0.2-1.9c0.3-1.3,0.8-2.5,1.1-3.8c0.1-0.5,0.6-1.1,0.2-1.6c-0.5-0.6-1.2-0.1-1.7,0c-0.7,0.1-0.9,0.5-1.2,1
	c-0.5,0.8-0.7,1.7-1,2.5c-0.5,1.7-0.5,1.7-2.2,1.2c-0.1,0-0.3-0.1-0.4-0.1c-1-0.2-1.2-0.7-0.9-1.6c0.5-1.4,0.9-2.8,1.2-4.2
	c0.3-1,0-1.3-1-1.1c-1.6,0.3-2.3,1.4-2.7,2.8c-0.3,1.1-0.3,2.6-1.2,3.3c-1,0.7-2.4,0.2-3.6,0.3c-0.1,0-0.3-0.1-0.4-0.1
	c0.2-1.6,0.9-3.1,1.2-4.6C141.8,36.3,142.3,35.7,141.7,35.2"/>
<path class="st1" d="M52,42.9c-0.7-0.9-0.7-2.1-1.1-3.1c-0.5-1.2-1.3-2-2.6-2.1c-0.8-0.1-1.1,0.2-0.9,1.1c0.4,1.5,0.9,3,1.3,4.5
	c0.2,0.7,0.4,1.2-0.2,2c-0.8,1,0.5,1.4,0.9,2c0.3,0.6,0.8,0.5,1.4,0.1c4.3-2.8,8.9-2.9,13.7-1.9c1.8,0.4,2.1,0.3,2.5-1.6
	c0.1-0.4,0.2-0.8-0.3-1.1c-0.7-0.4-0.7-1.1-0.9-1.8c-0.3-1.1-0.6-2.3-1-3.4c-0.3-0.9-0.7-1.7-1.6-2.1c-0.6-0.3-1.3-0.7-1.9-0.1
	c-0.5,0.4,0,1.1,0.1,1.6c0.3,1.1,0.6,2.2,0.9,3.2c0.1,0.5,0.4,1,0.1,1.6c-1,0-2.1,0-3.1,0c-0.8,0-1.1-0.4-1.3-1
	c-0.3-1.1-0.6-2.2-1-3.2c-0.4-1.2-1.4-1.9-2.6-2c-0.7-0.1-1.1,0.2-0.8,1c0.3,0.9,0.5,1.8,0.7,2.6C54.9,41.1,54.2,42.4,52,42.9"/>
<path class="st1" d="M148.5,60.2c0-2.8-2.3-5.3-5.1-5.3c-2.9-0.1-5.3,2.3-5.4,5.3c-0.1,3,2.2,5.4,5.2,5.4
	C146.1,65.6,148.5,63.2,148.5,60.2z M140.9,60.2c0-1.3,1.1-2.4,2.4-2.4c1.3,0,2.4,1.1,2.3,2.4c0,1.3-1.1,2.4-2.4,2.4
	C142,62.6,140.9,61.5,140.9,60.2z"/>
<path class="st1" d="M54.6,60.2c0,3,2.3,5.4,5.3,5.3c2.9,0,5.2-2.4,5.1-5.4c0-3-2.4-5.4-5.3-5.3C56.9,55,54.6,57.4,54.6,60.2z
	 M62.1,60.1c0.1,1.3-1,2.5-2.2,2.5c-1.3,0-2.4-1.1-2.4-2.3c0-1.3,1-2.5,2.3-2.5C61,57.8,62.1,58.8,62.1,60.1z"/>
<path class="st0" d="M73.5,129.3c-3-4.1-5.1-8.6-6.2-13.6c-0.3-1.5-1.8-2.6-3.3-2.4l-0.1,0l0,0.1c0.9,6.4,3.4,12.5,7.2,17.6
	c1.8,2.4,3.9,4.6,6.2,6.5c-2.3,1.9-4.4,4.1-6.2,6.5c-0.8,1-1.5,2.1-2.1,3.1l-0.1,0.1l0.1,0.1c1.3,0.8,3.1,0.5,4-0.8
	c0.2-0.2,0.3-0.4,0.5-0.7c2.6-3.5,6-6.6,9.8-8.9c1.2,4.8,1.4,9.6,0.6,14.4l0,0.1l3,0.5l0-0.1c0.9-5.3,0.6-10.6-0.7-15.8
	C85,131.5,82.9,127,80,123l-0.1-0.1l-0.1,0.1c-1.2,1-1.6,2.7-0.7,4.1c1.4,2.2,2.5,4.6,3.4,7c-0.9,0.5-1.8,1.1-2.6,1.7
	C77.4,133.9,75.3,131.7,73.5,129.3"/>
<path class="st0" d="M57.6,113.3l-0.1,0l0,0.1c0.9,7.8,3.9,15.3,8.6,21.6c1.3,1.8,2.8,3.5,4.4,5.1l0.1,0.1l2.1-2.2l-0.1-0.1
	c-1.5-1.5-2.9-3-4.1-4.7c-3.8-5.1-6.4-11.2-7.6-17.4C60.6,114.2,59.1,113.1,57.6,113.3"/>
<path class="st0" d="M51.2,113.3l-0.1,0l0,0.1c0.9,9.3,4.3,18.2,9.9,25.6c1.6,2.1,3.4,4.2,5.3,6l0.1,0.1l2.1-2.2l-0.1-0.1
	c-1.8-1.8-3.5-3.7-5-5.7c-4.7-6.3-7.8-13.7-9-21.4C54.1,114.3,52.7,113.1,51.2,113.3"/>
<path class="st0" d="M84.3,159.5c-9.8-2.9-18.4-8.5-24.8-16.1c-6.4-7.6-10.4-17.2-11.7-27.5c-0.2-1.5-1.5-2.6-3-2.5l-0.1,0l0,0.1
	c0.9,11.6,5.1,22.3,11.9,30.9c6.8,8.6,16.1,14.8,26.9,18c2.1,0.6,4.4,1.6,6.3,2.6c1.1,0.6,1.8,1.8,1.8,3.1v-5.4
	C88.4,160.8,85.2,159.7,84.3,159.5"/>
<path class="st0" d="M145.3,113.5l0-0.1l-0.1,0c-1.5-0.2-3,0.9-3.3,2.5c-1.1,6.3-3.8,12.3-7.6,17.4c-1.2,1.7-2.6,3.2-4.1,4.7
	l-0.1,0.1l2.1,2.2l0.1-0.1c1.6-1.6,3.1-3.3,4.4-5.1C141.5,128.8,144.4,121.3,145.3,113.5"/>
<path class="st0" d="M136.5,145.1c1.9-1.9,3.7-3.9,5.3-6c5.6-7.5,9-16.3,9.9-25.6l0-0.1l-0.1,0c-1.5-0.2-3,1-3.2,2.5
	c-1.2,7.7-4.3,15.1-9,21.4c-1.5,2-3.2,3.9-5,5.7l-0.1,0.1l2.1,2.2L136.5,145.1L136.5,145.1z"/>
<path class="st0" d="M129.3,146c0.2,0.2,0.3,0.4,0.5,0.7c0.9,1.3,2.7,1.6,4,0.8l0.1-0.1l-0.1-0.1c-0.6-1.1-1.4-2.1-2.1-3.1
	c-1.8-2.4-3.9-4.6-6.2-6.5c2.3-1.9,4.4-4.1,6.2-6.5c3.9-5.2,6.3-11.3,7.2-17.6l0-0.1l-0.1,0c-1.5-0.2-3,0.8-3.3,2.4
	c-1,4.9-3.1,9.5-6.2,13.6c-1.8,2.4-3.9,4.6-6.3,6.5c-0.8-0.6-1.7-1.1-2.6-1.7c0.9-2.5,2-4.8,3.4-7c0.8-1.3,0.5-3.1-0.7-4.1l-0.1-0.1
	l-0.1,0.1c-2.9,3.9-5.1,8.5-6.3,13.2c-1.3,5.2-1.6,10.5-0.7,15.8l0,0.1l3-0.5l0-0.1c-0.8-4.8-0.6-9.7,0.6-14.4
	C123.3,139.4,126.6,142.5,129.3,146"/>
<path class="st0" d="M113,164.9c1.9-1,4.2-1.9,6.3-2.6c10.8-3.2,20.1-9.4,26.9-18c6.9-8.6,11-19.3,11.9-30.9l0-0.1l-0.1,0
	c-1.5-0.1-2.8,1-3,2.5c-1.3,10.4-5.4,19.9-11.7,27.5c-6.4,7.6-14.9,13.2-24.8,16.1c-0.9,0.3-4.1,1.3-7.3,3v5.4
	C111.2,166.6,111.9,165.5,113,164.9"/>
<path class="st0" d="M165.6,109.2h-34.2v-3.3h31.5c1.5,0,2.7,1.2,2.7,2.8V109.2z"/>
<path class="st0" d="M37.4,109.2h35v-3.3H40.1c-1.5,0-2.7,1.2-2.7,2.8V109.2z"/>
<path class="st1" d="M162.1,98.1c0-0.8,0-1.6,0-2.4v-0.5c0-0.5,0-1,0-1.5c0-1.3-0.9-1-1.6-1c-0.7,0-1.4-0.2-1.4,1c0,1.3,0,2.5,0,3.7
	c0,0.8,0,1.6,0,2.4c0,0.2,0,0.3,0,0.5c0,0.5,0,1,0,1.5c0,1.3,0.9,1,1.6,1c0.7,0,1.4,0.2,1.4-1C162.1,100.5,162.1,99.3,162.1,98.1"/>
<path class="st1" d="M155.3,98.1c0-0.8,0-1.6,0-2.4v-0.5c0-0.5,0-1,0-1.5c0-1.3-0.9-1-1.6-1c-0.7,0-1.4-0.2-1.4,1c0,1.3,0,2.5,0,3.7
	c0,0.8,0,1.6,0,2.4v0.5c0,0.5,0,1,0,1.5c0,1.3,0.9,1,1.6,1c0.7,0,1.4,0.2,1.4-1C155.3,100.5,155.3,99.3,155.3,98.1"/>
<path class="st1" d="M148.4,98.1c0-0.8,0-1.6,0-2.4v-0.5c0-0.5,0-1,0-1.5c0-1.3-0.9-1-1.6-1c-0.7,0-1.4-0.2-1.4,1c0,1.3,0,2.5,0,3.7
	c0,0.8,0,1.6,0,2.4c0,0.2,0,0.3,0,0.5c0,0.5,0,1,0,1.5c0,1.3,0.9,1,1.6,1c0.7,0,1.4,0.2,1.4-1C148.4,100.5,148.4,99.3,148.4,98.1"/>
<path class="st1" d="M141.6,98.1c0-0.8,0-1.6,0-2.4v-0.5c0-0.5,0-1,0-1.5c0-1.3-0.9-1-1.6-1c-0.7,0-1.4-0.2-1.4,1c0,1.3,0,2.5,0,3.7
	c0,0.8,0,1.6,0,2.4c0,0.2,0,0.3,0,0.5c0,0.5,0,1,0,1.5c0,1.3,0.9,1,1.6,1c0.7,0,1.4,0.2,1.4-1C141.6,100.5,141.6,99.3,141.6,98.1"/>
<path class="st1" d="M134.7,98.1c0-0.8,0-1.6,0-2.4v-0.5c0-0.5,0-1,0-1.5c0-1.3-0.9-1-1.6-1c-0.7,0-1.4-0.2-1.4,1c0,1.3,0,2.5,0,3.7
	c0,0.8,0,1.6,0,2.4c0,0.2,0,0.3,0,0.5c0,0.5,0,1,0,1.5c0,1.3,0.9,1,1.6,1c0.7,0,1.4,0.2,1.4-1C134.7,100.5,134.7,99.3,134.7,98.1"/>
<path class="st1" d="M72.4,98.1c0-0.8,0-1.6,0-2.4v-0.5c0-0.5,0-1,0-1.5c0-1.3-0.9-1-1.6-1c-0.7,0-1.4-0.2-1.4,1c0,1.3,0,2.5,0,3.7
	c0,0.8,0,1.6,0,2.4c0,0.2,0,0.3,0,0.5c0,0.5,0,1,0,1.5c0,1.3,0.9,1,1.6,1c0.7,0,1.4,0.2,1.4-1C72.4,100.5,72.4,99.3,72.4,98.1"/>
<path class="st1" d="M65.6,98.1c0-0.8,0-1.6,0-2.4v-0.5c0-0.5,0-1,0-1.5c0-1.3-0.9-1-1.6-1c-0.7,0-1.4-0.2-1.4,1c0,1.3,0,2.5,0,3.7
	c0,0.8,0,1.6,0,2.4c0,0.2,0,0.3,0,0.5c0,0.5,0,1,0,1.5c0,1.3,0.9,1,1.6,1c0.7,0,1.4,0.2,1.4-1C65.6,100.5,65.6,99.3,65.6,98.1"/>
<path class="st1" d="M58.7,98.1c0-0.8,0-1.6,0-2.4v-0.5c0-0.5,0-1,0-1.5c0-1.3-0.9-1-1.6-1c-0.7,0-1.4-0.2-1.4,1c0,1.3,0,2.5,0,3.7
	c0,0.8,0,1.6,0,2.4v0.5c0,0.5,0,1,0,1.5c0,1.3,0.9,1,1.6,1c0.7,0,1.4,0.2,1.4-1C58.7,100.5,58.7,99.3,58.7,98.1"/>
<path class="st1" d="M51.8,98.1c0-0.8,0-1.6,0-2.4v-0.5c0-0.5,0-1,0-1.5c0-1.3-0.9-1-1.6-1c-0.7,0-1.4-0.2-1.4,1c0,1.3,0,2.5,0,3.7
	c0,0.8,0,1.6,0,2.4c0,0.2,0,0.3,0,0.5c0,0.5,0,1,0,1.5c0,1.3,0.9,1,1.6,1c0.7,0,1.4,0.2,1.4-1C51.8,100.5,51.8,99.3,51.8,98.1"/>
<path class="st1" d="M45,98.1c0-0.8,0-1.6,0-2.4v-0.5c0-0.5,0-1,0-1.5c0-1.3-0.9-1-1.6-1c-0.7,0-1.4-0.2-1.4,1c0,1.3,0,2.5,0,3.7
	c0,0.8,0,1.6,0,2.4c0,0.2,0,0.3,0,0.5c0,0.5,0,1,0,1.5c0,1.3,0.9,1,1.6,1c0.7,0,1.4,0.2,1.4-1C45,100.5,45,99.3,45,98.1"/>
<path class="st1" d="M60,154c-10.5-10-17.2-23.3-19-37.8c-0.2-1.7-1.6-2.9-3.3-2.8c1.2,16.4,8.4,31.6,20.2,42.8
	c10.5,10,23.8,16,38,17.3v-3.1C82.5,169.2,69.9,163.5,60,154"/>
<path class="st1" d="M162,116.2c-1.7,14.5-8.4,27.8-18.9,37.8c-9.7,9.3-22,15-35.1,16.4v3.1c13.9-1.4,26.9-7.4,37.2-17.2
	c11.8-11.3,19-26.5,20.2-42.9C163.7,113.3,162.2,114.5,162,116.2"/>
<path class="st0" d="M102.4,128.1c1.3,4.7,1.3,9.4,1.2,14.2c-0.1,7.9,0,21.1,0,29c0,0.4,0,0.7,0,1.1c0,0.5,0.2,1.1-0.3,1.4
	c-0.8,0.4-1.7,0.2-2.6,0c0-0.8,0-1.5,0-2.3c0-7.5-0.1-20.1,0-27.6c0-3.4-1.1-6.1-3.4-8.5c-3.8-3.8-7.6-7.7-11.4-11.6
	c-5.2-5.4-8-11.8-8.4-19.4c0-0.4-0.1-0.8-0.2-1.2c0.2-1.7,0.3-3.4,0-5c0.2-0.4,0.2-0.8,0-1.3c0.2-1,0.2-2,0-3c0.1-0.3,0.1-0.6,0-0.9
	c0.3-1.2-0.1-2.4,0.3-3.5c1.8,0.1,2.6,0.9,2.8,2.8c0.2,1.6,0.3,3.2,0.6,4.8c0.7,4.1,2.7,7.5,5.5,10.4c2.7,2.8,5.4,5.6,8.1,8.4
	c3.3,3.3,5.8,7.1,7.3,11.6C102.1,127.7,102.3,127.9,102.4,128.1 M100.2,134.1c0.3-0.9,0.1-1.5,0-2c-1-5.3-3.5-9.9-7.2-13.7
	c-2.2-2.3-4.4-4.6-6.7-6.9c-1.8-1.8-3.4-3.9-4.8-6.1c-0.2-0.4-0.3-1-0.9-0.9c0,0.5-0.1,1,0,1.5c0.7,6.1,3.1,11.3,7.3,15.7
	c3.2,3.3,6.4,6.6,9.6,9.8C98.4,132.2,99.2,133.1,100.2,134.1"/>
<path class="st1" d="M107.8,91.9c0,1.2-0.7,2-1.5,2c-1,0-1.6-0.9-1.5-2.4c0-1.3,0.4-1.8,1.3-1.8C107.2,89.7,107.9,90.6,107.8,91.9z"
	/>
<path class="st1" d="M101.6,109.7c0.8,0,1.7,1.3,1.6,2.3c-0.1,1.2-0.7,1.9-1.6,1.9c-1,0-1.7-1-1.7-2.3
	C99.9,110.5,100.7,109.6,101.6,109.7"/>
<path class="st1" d="M101.5,119.3c-0.9,0-1.7-1-1.6-2.2c0-1,0.8-2,1.6-2c0.8,0,1.7,1.2,1.6,2.3C103.1,118.6,102.4,119.4,101.5,119.3
	"/>
<path class="st1" d="M101.5,76.7c0.9,0,1.7,1.1,1.7,2.1c-0.1,0.9-1,2-1.7,2c-0.9,0-1.7-1.1-1.6-2.2C100,77.5,100.7,76.6,101.5,76.7z
	"/>
<path class="st1" d="M107.8,97.3c0,1.2-0.6,2.2-1.6,2.2c-0.9,0-1.5-0.9-1.5-2c0-1.3,0.6-2.2,1.6-2.2
	C107.2,95.3,107.8,96.1,107.8,97.3z"/>
<path class="st1" d="M101.5,82.1c0.9,0,1.7,1.1,1.7,2.2c-0.1,0.9-1,2-1.7,2c-0.9,0-1.7-1.1-1.6-2.2C100,83,100.7,82.1,101.5,82.1"/>
<path class="st1" d="M101.4,97.3c-0.8,0-1.5-1-1.5-2.1c0-1,0.7-2,1.6-2.1c0.7-0.1,1.7,1,1.7,2C103.2,96.1,102.2,97.3,101.4,97.3"/>
<path class="st1" d="M104.8,86.3c0-1.2,0.6-2,1.5-2c0.9,0,1.6,0.9,1.5,2c0,1.3-0.9,2.3-1.9,2.2C105.2,88.4,104.8,87.6,104.8,86.3"/>
<path class="st1" d="M107.8,108.4c0,1.2-0.6,2-1.5,2c-0.9,0-1.6-0.9-1.5-2c0-1.3,0.8-2.3,1.6-2.2
	C107.3,106.3,107.9,107.2,107.8,108.4z"/>
<path class="st1" d="M103.2,100.4c0,1.2-0.8,2.4-1.7,2.4c-0.8,0-1.5-0.9-1.6-2c0-1.1,0.8-2.2,1.6-2.2
	C102.2,98.7,103.1,99.7,103.2,100.4"/>
<path class="st1" d="M104.8,80.8c0-1.2,0.7-2,1.5-2c0.9,0,1.6,0.9,1.5,2.2c0,1.1-0.7,1.9-1.4,1.9C105.5,82.9,104.8,82,104.8,80.8z"
	/>
<path class="st1" d="M90.4,99c0-1.1,0.8-2.1,1.7-2c0.7,0.1,1.3,1.2,1.3,2.3c0,1-0.7,1.8-1.5,1.9C91,101.2,90.4,100.3,90.4,99z"/>
<path class="st1" d="M104.8,102.9c0-1.2,0.6-2.1,1.4-2.1c0.9,0,1.6,1.1,1.6,2.2c0,1.1-0.7,2-1.6,1.9
	C105.4,104.9,104.8,104,104.8,102.9z"/>
<path class="st1" d="M109.7,93.4c0.1-1.1,0.8-1.9,1.6-1.9c0.8,0.1,1.5,1.2,1.4,2.4c-0.1,1-0.8,1.7-1.6,1.7
	C110.1,95.6,109.6,94.8,109.7,93.4z"/>
<path class="st1" d="M93.4,88.1c0,1.2-0.6,2-1.5,2c-0.9,0-1.6-0.9-1.6-2.2c0-1.1,0.7-2,1.6-1.9C92.8,86.1,93.5,87,93.4,88.1z"/>
<path class="st1" d="M107.8,113.9c0,1.2-0.7,2-1.5,2c-0.9,0-1.6-0.9-1.5-2.2c0-1.1,0.8-1.9,1.6-1.9
	C107.3,111.9,107.9,112.8,107.8,113.9"/>
<path class="st1" d="M95.1,91.9c0,1.2,0.7,2,1.5,2c1,0,1.6-0.9,1.5-2.4c0-1.3-0.4-1.8-1.3-1.8C95.7,89.7,95.1,90.6,95.1,91.9z"/>
<path class="st1" d="M95.1,97.3c0,1.2,0.6,2.2,1.6,2.2c0.9,0,1.5-0.9,1.5-2c0-1.3-0.6-2.2-1.6-2.2C95.7,95.3,95.1,96.1,95.1,97.3z"
	/>
<path class="st1" d="M98.2,86.3c0-1.2-0.6-2-1.5-2c-0.9,0-1.6,0.9-1.5,2c0,1.3,0.9,2.3,1.9,2.2C97.7,88.4,98.2,87.6,98.2,86.3"/>
<path class="st1" d="M95.1,108.4c0,1.2,0.6,2,1.5,2c0.9,0,1.6-0.9,1.5-2c0-1.3-0.8-2.3-1.6-2.2C95.7,106.3,95.1,107.2,95.1,108.4"/>
<path class="st1" d="M98.2,80.8c0-1.2-0.7-2-1.5-2c-0.9,0-1.6,0.9-1.5,2.2c0,1.1,0.7,1.9,1.4,1.9C97.5,82.9,98.2,82,98.2,80.8z"/>
<path class="st1" d="M98.2,102.9c0-1.2-0.6-2.1-1.4-2.1c-0.9,0-1.6,1.1-1.6,2.2c0,1.1,0.7,2,1.6,1.9C97.5,104.9,98.2,104,98.2,102.9
	z"/>
<path class="st1" d="M95.1,113.9c0,1.2,0.7,2,1.5,2c0.9,0,1.6-0.9,1.5-2.2c0-1.1-0.8-1.9-1.6-1.9C95.6,111.9,95.1,112.8,95.1,113.9"
	/>
<path class="st1" d="M93.4,104.5c0,1.2-0.6,2.1-1.4,2.2c-0.9,0.1-1.6-0.8-1.7-1.9c0-1.1,0.7-2.1,1.4-2.2
	C92.7,102.5,93.4,103.3,93.4,104.5"/>
<path class="st1" d="M109.7,88.2c0-1.2,0.5-2.2,1.3-2.2c0.7-0.1,1.8,1.2,1.7,2.1c0,1.1-0.7,2-1.5,2
	C110.3,90.1,109.7,89.4,109.7,88.2z"/>
<path class="st1" d="M93.4,93.7c-0.1,1.2-0.8,2-1.6,1.9c-0.9-0.1-1.5-1-1.4-2.1c0.1-1.1,0.8-2,1.7-1.9
	C92.9,91.7,93.5,92.5,93.4,93.7z"/>
<path class="st1" d="M85.6,95.3c0-1.1,0.8-1.9,1.6-1.9c0.6,0.1,1.2,1.1,1.2,2.1c0,0.9-0.6,1.7-1.3,1.7
	C86.2,97.4,85.6,96.5,85.6,95.3z"/>
<path class="st1" d="M88.4,100.4c0,1.1-0.5,1.9-1.3,2c-0.8,0.1-1.5-0.7-1.5-1.7c0-1,0.6-2,1.3-2C87.7,98.6,88.4,99.4,88.4,100.4z"/>
<path class="st1" d="M88.4,90.4c-0.1,1.1-0.7,1.8-1.5,1.8c-0.8-0.1-1.4-0.9-1.3-2c0.1-1.1,0.8-1.9,1.5-1.8
	C87.9,88.5,88.5,89.3,88.4,90.4"/>
<path class="st1" d="M117.5,95.3c0-1.1-0.8-1.9-1.6-1.9c-0.6,0.1-1.2,1.1-1.2,2.1c0,0.9,0.6,1.7,1.3,1.7
	C116.9,97.4,117.6,96.5,117.5,95.3z"/>
<path class="st1" d="M114.7,100.4c0,1.1,0.5,1.9,1.3,2c0.8,0.1,1.5-0.7,1.5-1.7c0-1-0.6-2-1.3-2C115.4,98.6,114.7,99.4,114.7,100.4z
	"/>
<path class="st1" d="M114.7,90.4c0.1,1.1,0.7,1.8,1.5,1.8c0.8-0.1,1.4-0.9,1.3-2c-0.1-1.1-0.8-1.9-1.5-1.8
	C115.2,88.5,114.6,89.3,114.7,90.4"/>
<path class="st1" d="M102.9,106.2c0,1.2-0.6,2-1.4,2.1c-0.8,0.1-1.6-1-1.6-2.1c0-1,0.8-2,1.6-2C102.3,104.1,102.9,105.1,102.9,106.2
	z"/>
<path class="st1" d="M111.2,97.1c0.7,0,1.6,1.2,1.5,2.1c0,1.1-0.8,2-1.6,2c-0.9-0.1-1.5-1-1.5-2.3C109.8,97.9,110.4,97,111.2,97.1z"
	/>
<path class="st1" d="M102.9,89.8c0,1.1-0.6,2-1.3,2c-0.7,0-1.7-1.2-1.7-2.2c0-1,0.9-2,1.7-1.9C102.3,87.7,102.9,88.7,102.9,89.8"/>
<path class="st1" d="M110,105.1c0-1.3,0.4-1.8,1.3-1.9c1,0,1.7,0.7,1.7,1.8c0,1.1-0.7,2-1.5,2C110.5,107,110,106.3,110,105.1"/>
<path class="st2" d="M203,26v167"/>
<text transform="matrix(1 0 0 1 222.4785 61.1001)" class="st3 st4 st5">AGENCIA DE</text>
<g>
	<text transform="matrix(1 0 0 1 222.4783 110.9998)" class="st3 st4 st5">TRANSFORMACIÓN</text>
</g>
<g>
	<text transform="matrix(1 0 0 1 222.9598 161.2405)" class="st3 st4 st5">DIGITAL</text>
</g>
</svg>
