<svg width="2246" height="796" viewBox="0 0 2246 796" fill="none" xmlns="http://www.w3.org/2000/svg">
<rect width="2246" height="796" fill="white"/>
<path d="M1718.49 328.346L1797.31 330.995L1798.38 294.562L1710.72 295.337L1708.72 220.383L1708.74 220.34L1711.4 105.852L1664.98 107.295L1666.89 211.813L1665.73 330.22L1718.49 328.346Z" fill="#6F7857"/>
<path d="M2145.54 196.46C2122.13 185.629 2100 175.401 2100 155.656C2100 144.631 2110.37 136.901 2116 136.901C2136.82 136.901 2178.77 151.78 2187.66 155.01C2189.43 149.885 2194.82 133.068 2196.56 114.185C2175.66 107.079 2152.07 103.461 2126.44 103.461C2105.52 103.461 2054.29 131.906 2054.29 169.2C2054.29 201.994 2085.67 216.657 2116 230.847C2141.93 242.97 2166.4 254.403 2166.4 276.56C2166.4 289.695 2156.39 298.416 2152.33 298.416C2120.81 297.727 2072.61 282.094 2062.71 278.778C2061.42 284.764 2057.53 304.337 2057.36 321.929C2073.26 328.475 2102.23 335.301 2137.23 335.301C2145.8 335.301 2163.11 327.635 2179.65 312.95C2190.18 303.605 2207.84 284.549 2207.84 261.811C2207.84 225.249 2174.73 209.939 2145.52 196.438L2145.54 196.46Z" fill="#6F7857"/>
<path d="M1995.9 130.506C1975.71 111.859 1948.17 101.158 1920.35 101.158C1889.89 101.158 1861.17 113.022 1839.47 134.576C1817.17 156.733 1804.89 186.921 1804.89 219.607C1804.89 265.084 1825.12 292.602 1842.11 307.675C1862.18 325.482 1889.55 336.119 1915.32 336.119C1981.76 336.119 2029.99 283.537 2029.99 211.102C2029.99 170.535 2011.45 144.89 1995.88 130.528L1995.9 130.506ZM1963.03 293.141L1962.86 293.356L1962.62 293.507C1954.7 298.524 1938.76 301.904 1928.86 301.904C1906.73 301.904 1886.6 292.495 1872.17 275.441C1857.3 257.849 1849.44 233.84 1849.44 206.042C1849.44 172.236 1865.14 150.381 1871.89 142.543L1872.08 142.328L1872.32 142.177C1877.22 139.313 1894.1 134.576 1904.11 134.576C1952.12 134.576 1983.14 172.215 1983.14 230.46C1983.14 256.643 1973.04 280.802 1963.03 293.162V293.141Z" fill="#6F7857"/>
<path d="M1632.22 331.016L1633.3 293.787L1542.9 295.337L1541.68 230.697L1618.3 230.309L1619.38 195.728L1541.29 196.503L1542.52 141.553H1631.06L1631.75 106.218L1534.55 108.134L1498.37 107.381L1501.4 221.093L1499.51 330.607L1539.08 329.121L1632.22 331.016Z" fill="#6F7857"/>
<path d="M1003.18 106.304L948.429 109.62C938.397 137.957 918.183 182.184 898.614 224.969C892.728 237.824 887.185 249.968 881.858 261.789L880.376 265.062L878.786 261.854C858.486 220.813 821.99 142.414 809.509 104.754L753.937 107.704C753.357 118.707 752.541 138.839 751.617 161.987C749.318 219.004 746.182 296.693 743.003 330.628L785.815 328.841L785.429 249.86L787.125 150.079L790.262 157.745C800.165 182.076 812.817 210.241 825.062 237.501C840.12 271.07 855.694 305.758 865.661 332.243H884.629C891.417 315.922 901.556 293.959 913.264 268.637C929.074 234.422 946.968 195.663 961.124 160.846L963.96 153.869L968.256 229.211L971.306 331.016L1014.63 329.229L1007.03 220.081L1003.23 106.326L1003.18 106.304Z" fill="#6F7857"/>
<path d="M1231.94 130.506C1211.75 111.859 1184.21 101.158 1156.39 101.158C1125.93 101.158 1097.21 113.022 1075.51 134.576C1053.21 156.733 1040.93 186.921 1040.93 219.607C1040.93 265.084 1061.16 292.602 1078.15 307.675C1098.22 325.482 1125.59 336.119 1151.36 336.119C1217.8 336.119 1266.05 283.537 1266.05 211.102C1266.05 170.535 1247.51 144.89 1231.94 130.528V130.506ZM1199.07 293.141L1198.9 293.356L1198.66 293.507C1190.72 298.524 1174.8 301.904 1164.9 301.904C1142.77 301.904 1122.64 292.495 1108.23 275.441C1093.36 257.849 1085.5 233.84 1085.5 206.042C1085.5 172.236 1101.2 150.381 1107.95 142.543L1108.14 142.328L1108.38 142.177C1113.28 139.313 1130.16 134.576 1140.17 134.576C1188.18 134.576 1219.2 172.215 1219.2 230.46C1219.2 256.643 1209.1 280.802 1199.09 293.162L1199.07 293.141Z" fill="#6F7857"/>
<path d="M1375.16 247.04C1404.41 298.093 1427.46 327.915 1431.85 333.449L1473.43 317.989C1467.29 309.677 1441.53 274.364 1421.34 240.602L1420.57 239.31L1421.75 238.384C1433.18 229.362 1459.77 204.406 1459.77 167.628C1459.77 130.851 1429.33 106.541 1378.34 106.541L1295.4 107.295L1297.31 212.545L1295.78 330.93L1341.45 328.777L1340.29 242.044L1374.77 246.265L1375.2 246.997L1375.16 247.04ZM1339.48 207.377L1341.09 136.536L1370.56 136.127C1398.85 136.127 1414.42 148.572 1414.42 171.16C1414.42 196.934 1399.84 209.466 1393.57 213.665L1393.14 213.945H1392.62C1379.11 213.945 1352.84 210.499 1340.81 207.7L1339.48 207.377Z" fill="#6F7857"/>
<path d="M743.241 463.806L743.585 428.665L743.026 397.615L757.612 397.163L756.817 431.163L757.376 452.587L783.046 452.372L782.702 464.043L759.18 463.246L743.241 463.806Z" fill="#C2996D"/>
<path d="M837.653 464.023L831.767 446.108H807.128L801.371 463.893L787.129 463.549C787.129 463.549 802.058 429.334 814.818 397.035H826.01C826.01 397.035 840.037 434.545 852.475 463.549L837.674 464.001L837.653 464.023ZM810.629 436.483H828.502L819.566 413.701L810.629 436.483Z" fill="#C2996D"/>
<path d="M904.246 463.913L904.934 431.055L904.483 408.834L885.944 409.178L886.052 397.163L913.29 397.852L939.068 397.292L938.831 409.2L918.94 408.747L918.252 431.076L918.94 463.375L904.246 463.935V463.913Z" fill="#C2996D"/>
<path d="M961.902 463.461L947.553 464.021L947.896 428.665L947.338 397.723L961.924 397.163L961.021 431.163L961.924 463.461H961.902Z" fill="#C2996D"/>
<path d="M974.916 463.914L975.474 431.4L974.572 397.637L985.657 397.853L1014.59 397.293L1014.36 408.619H988.471L988.127 423.692L1010.96 423.476L1010.62 434.587L988.234 434.695L988.578 452.61L1015.04 452.157L1014.7 464.065L987.01 463.505L974.916 463.957V463.914Z" fill="#C2996D"/>
<path d="M1025.79 464.021L1026.24 428.88L1025.68 397.593L1050.45 397.356C1067.29 397.356 1074.77 405.517 1074.77 415.724C1074.77 425.241 1068.77 432.605 1063.47 436.804C1070.25 448.13 1079.06 459.93 1079.06 459.93L1065.94 464.796C1065.94 464.796 1058.7 455.946 1049.1 439.194L1039.82 438.053L1040.16 463.332L1025.81 464.021H1025.79ZM1060.5 416.757C1060.5 410.297 1056.1 407.003 1048.17 407.003L1040.03 407.111L1039.58 426.942C1042.97 427.739 1050.66 428.751 1054.62 428.751C1056.66 427.394 1060.5 423.755 1060.5 416.736V416.757Z" fill="#C2996D"/>
<path d="M1087.52 464.021L1087.97 428.88L1087.42 397.593L1112.18 397.356C1129.03 397.356 1136.5 405.517 1136.5 415.724C1136.5 425.241 1130.51 432.605 1125.2 436.804C1131.99 448.13 1140.8 459.93 1140.8 459.93L1127.67 464.796C1127.67 464.796 1120.43 455.946 1110.83 439.194L1101.55 438.053L1101.89 463.332L1087.54 464.021H1087.52ZM1122.24 416.757C1122.24 410.297 1117.83 407.003 1109.91 407.003L1101.77 407.111L1101.31 426.942C1104.71 427.739 1112.4 428.751 1116.35 428.751C1118.39 427.394 1122.24 423.755 1122.24 416.736V416.757Z" fill="#C2996D"/>
<path d="M1194.24 464.023L1188.35 446.108H1163.71L1157.96 463.893L1143.71 463.549C1143.71 463.549 1158.64 429.334 1171.4 397.035H1182.59C1182.59 397.035 1196.62 434.545 1209.06 463.549L1194.26 464.001L1194.24 464.023ZM1167.21 436.483H1185.09L1176.15 413.701L1167.21 436.483Z" fill="#C2996D"/>
<path d="M1294.86 474.465L1285.02 464.388C1282.18 465.077 1279.26 465.529 1276.19 465.529C1261.95 465.529 1243.41 454.547 1243.41 430.969C1243.41 410.578 1259.35 395.828 1277.67 395.828C1294.06 395.828 1310.24 408.188 1310.24 428.472C1310.24 441.283 1305.15 451.92 1297.01 458.38C1300.85 463.828 1304.91 468.134 1310.69 472.312C1308.89 476.166 1306.16 478.427 1306.16 478.427L1294.86 474.465ZM1289.77 452.136C1292.71 448.518 1295.52 441.606 1295.52 434.113C1295.52 417.576 1286.72 406.573 1272.9 406.573C1270.07 406.573 1265.21 407.93 1263.86 408.726C1261.71 411.224 1257.42 417.576 1257.42 426.964C1257.42 443.501 1267.25 454.504 1280.14 454.504C1283.09 454.504 1287.6 453.492 1289.75 452.114L1289.77 452.136Z" fill="#C2996D"/>
<path d="M1319.39 432.304L1319.63 397.637L1334.21 397.184C1334.11 402.288 1333.66 414.755 1333.66 431.636C1333.66 448.518 1338.4 453.621 1349.6 453.621C1354.9 453.621 1360.1 452.027 1362.25 450.455C1365.53 443.199 1365.86 422.356 1365.86 411.589V397.658L1379.88 397.206C1379.78 402.072 1379.43 415.228 1379.43 424.294C1379.43 451.726 1370.5 464.753 1347 464.753C1326.52 464.753 1319.41 454.439 1319.41 432.347L1319.39 432.304Z" fill="#C49A6D"/>
<path d="M1392.32 463.914L1392.88 431.4L1391.98 397.637L1403.06 397.853L1432 397.293L1431.76 408.619H1405.88L1405.53 423.692L1428.37 423.476L1428.02 434.587L1405.64 434.695L1405.98 452.61L1432.45 452.157L1432.1 464.065L1404.42 463.505L1392.32 463.957V463.914Z" fill="#C2996D"/>
<path d="M1524.92 464.603C1518.37 452.136 1496.55 428.235 1487.16 413.938L1487.37 432.305L1488.38 463.354L1473.9 463.914L1474.46 428.321L1474.25 397.961L1490.98 396.948C1494.59 406.25 1513.15 427.998 1525.24 443.308L1525.03 424.036L1523.89 397.853L1538.58 397.164L1538.03 429.355V463.57L1524.92 464.582V464.603Z" fill="#C2996D"/>
<path d="M1547.78 430.948C1547.78 410.557 1563.72 395.807 1582.04 395.807C1598.43 395.807 1614.61 408.167 1614.61 428.45C1614.61 450.219 1600.13 465.507 1580.58 465.507C1566.34 465.507 1547.8 454.526 1547.8 430.948H1547.78ZM1594.14 452.136C1597.08 448.518 1599.89 441.607 1599.89 434.113C1599.89 417.576 1591.07 406.573 1577.27 406.573C1574.44 406.573 1569.58 407.93 1568.23 408.727C1566.08 411.224 1561.79 417.576 1561.79 426.964C1561.79 443.501 1571.62 454.504 1584.51 454.504C1587.46 454.504 1591.97 453.492 1594.12 452.114L1594.14 452.136Z" fill="#C2996D"/>
<path d="M1623.87 461.201C1623.87 454.849 1625.57 447.592 1625.57 447.592C1625.57 447.592 1641.85 453.255 1652.14 453.492C1652.94 453.492 1655.75 451.339 1655.75 447.592C1655.75 434.221 1622.97 434.565 1622.97 416.198C1622.97 405.087 1637.9 396.474 1644.56 396.474C1653.49 396.474 1660.39 397.939 1665.59 399.769C1665.03 406.681 1662.75 412.688 1662.75 412.688C1662.75 412.688 1648.17 407.241 1641.51 407.241C1640.15 407.241 1637.32 409.286 1637.32 412.236C1637.32 424.596 1668.85 423.562 1668.85 443.286C1668.85 454.849 1653.47 465.27 1647.72 465.27C1638.11 465.27 1629.18 463.462 1623.87 461.201Z" fill="#C2996D"/>
<path d="M1708.87 432.304L1709.11 397.637L1723.69 397.184C1723.59 402.288 1723.13 414.755 1723.13 431.636C1723.13 448.518 1727.88 453.621 1739.07 453.621C1744.38 453.621 1749.6 452.027 1751.75 450.455C1755.03 443.199 1755.36 422.356 1755.36 411.589V397.658L1769.38 397.206C1769.28 402.072 1768.93 415.228 1768.93 424.294C1768.93 451.726 1760 464.753 1736.47 464.753C1716 464.753 1708.89 454.439 1708.89 432.347L1708.87 432.304Z" fill="#C2996D"/>
<path d="M1832.45 464.603C1825.9 452.136 1804.07 428.235 1794.69 413.938L1794.9 432.305L1795.91 463.354L1781.43 463.914L1781.99 428.321L1781.78 397.961L1798.51 396.948C1802.12 406.25 1820.68 427.998 1832.77 443.308L1832.56 424.036L1831.42 397.853L1846.11 397.164L1845.55 429.355V463.57L1832.45 464.582V464.603Z" fill="#C2996D"/>
<path d="M1859.13 463.914L1859.69 431.4L1858.79 397.637L1869.87 397.853L1898.81 397.293L1898.59 408.619H1872.71L1872.36 423.692L1895.2 423.476L1894.86 434.587L1872.47 434.695L1872.82 452.61L1899.26 452.157L1898.92 464.065L1871.23 463.505L1859.13 463.957V463.914Z" fill="#C2996D"/>
<path d="M740.364 559.367C740.364 545.069 750.611 537.899 761.051 537.899C767.86 537.899 774.391 540.935 776.517 542.205C775.336 545.973 772.887 549.225 772.887 549.225C771.362 548.299 764.166 544.789 758.881 544.789C755.981 544.789 753.189 545.586 752.136 546.189C751.212 547.115 748.377 550.689 748.377 556.33C748.377 564.341 753.21 572.028 763.564 572.028C765.948 572.028 768.977 570.843 768.977 570.843L769.042 557.256L776.775 556.783L776.302 574.87C773.188 576.334 766.593 578.638 760.32 578.638C749.752 578.638 740.364 571.145 740.364 559.367Z" fill="#C2996D"/>
<path d="M781.866 558.441C781.866 546.512 791.189 537.899 801.887 537.899C811.467 537.899 820.919 545.112 820.919 556.976C820.919 569.702 812.456 578.638 801.027 578.638C792.693 578.638 781.866 572.221 781.866 558.441ZM808.954 570.822C810.673 568.712 812.327 564.664 812.327 560.292C812.327 550.624 807.171 544.208 799.116 544.208C797.462 544.208 794.626 545.004 793.831 545.457C792.585 546.921 790.072 550.624 790.072 556.115C790.072 565.783 795.829 572.2 803.348 572.2C805.066 572.2 807.708 571.597 808.954 570.8V570.822Z" fill="#C2996D"/>
<path d="M826.658 577.519L826.916 557.709L826.594 539.04C826.594 539.04 840.793 538.847 843.242 538.847C849.257 538.847 853.811 542.227 853.811 547.05C853.811 551.421 851.297 554.608 848.268 556.395C853.36 557.58 856.99 560.96 856.99 566.063C856.99 573.557 850.524 577.863 843.049 577.863C836.497 577.863 830.503 577.669 826.658 577.54V577.519ZM842.383 554.802C843.843 554.199 846.271 552.154 846.271 549.096C846.271 546.038 843.693 544.531 840.063 544.531H834.714L834.585 554.608L842.383 554.802ZM848.913 566.257C848.913 562.877 846.271 560.293 840.578 560.293C839.268 560.293 834.692 560.487 834.692 560.487L834.821 571.49C836.604 571.963 839.719 572.093 842.082 572.093C845.111 572.093 848.891 570.241 848.891 566.257H848.913Z" fill="#C2996D"/>
<path d="M870.709 577.454L862.31 577.777L862.503 557.106L862.181 539.019L870.709 538.696L870.172 558.57L870.709 577.454Z" fill="#C2996D"/>
<path d="M878.32 577.712L878.643 558.699L878.105 538.954L884.571 539.083L901.477 538.76L901.348 545.392H886.225L886.032 554.198L899.372 554.069L899.179 560.551L886.096 560.615L886.29 571.08L901.756 570.821L901.563 577.776L885.366 577.453L878.299 577.712H878.32Z" fill="#C2996D"/>
<path d="M908.045 577.777L908.303 557.236L907.98 538.955L922.459 538.825C932.297 538.825 936.658 543.584 936.658 549.548C936.658 555.104 933.157 559.41 930.042 561.865C934.016 568.497 939.15 575.387 939.15 575.387L931.481 578.23C931.481 578.23 927.249 573.062 921.643 563.265L916.229 562.597L916.423 577.368L908.023 577.756L908.045 577.777ZM928.323 550.151C928.323 546.383 925.745 544.445 921.127 544.445L916.38 544.51L916.122 556.094C918.098 556.568 922.588 557.149 924.908 557.149C926.089 556.353 928.345 554.243 928.345 550.13L928.323 550.151Z" fill="#C2996D"/>
<path d="M973.783 578.1C969.959 570.822 957.199 556.847 951.721 548.493L951.85 559.216L952.452 577.368L943.988 577.691L944.311 556.89L944.182 539.148L953.956 538.545C956.061 543.971 966.909 556.697 973.976 565.633L973.847 554.371L973.181 539.062L981.774 538.674L981.452 557.493V577.497L973.783 578.1Z" fill="#C2996D"/>
<path d="M987.116 558.441C987.116 546.512 996.439 537.899 1007.14 537.899C1016.72 537.899 1026.17 545.112 1026.17 556.976C1026.17 569.702 1017.71 578.638 1006.28 578.638C997.943 578.638 987.116 572.221 987.116 558.441ZM1014.2 570.822C1015.92 568.712 1017.58 564.664 1017.58 560.292C1017.58 550.624 1012.42 544.208 1004.37 544.208C1002.71 544.208 999.876 545.004 999.081 545.457C997.835 546.921 995.322 550.624 995.322 556.115C995.322 565.783 1001.08 572.2 1008.6 572.2C1010.32 572.2 1012.96 571.597 1014.2 570.8V570.822Z" fill="#C2996D"/>
<path d="M1051.26 577.712H1049.95L1050.49 557.256L1050.3 538.911H1062.39C1071.24 538.911 1085.91 541.107 1085.91 556.998C1085.91 569.573 1077.64 578.186 1064.97 578.186C1058.5 578.186 1056.44 577.798 1051.28 577.712H1051.26ZM1073.26 570.757C1075.58 567.85 1077.43 563.264 1077.43 558.247C1077.43 547.588 1070.62 544.746 1062.15 544.746C1061.04 544.746 1059.77 544.81 1058.78 544.94L1058.39 557.73L1058.78 571.381C1060.56 571.64 1062.82 571.855 1065.05 571.855C1068.23 571.855 1071.07 571.381 1073.24 570.8L1073.26 570.757Z" fill="#C2996D"/>
<path d="M1091.78 577.712L1092.1 558.699L1091.56 538.954L1098.03 539.083L1114.93 538.76L1114.8 545.392H1099.68L1099.49 554.198L1112.83 554.069L1112.63 560.551L1099.55 560.615L1099.74 571.08L1115.21 570.821L1115.02 577.776L1098.82 577.453L1091.75 577.712H1091.78Z" fill="#C2996D"/>
<path d="M1121.51 577.648L1121.7 557.106L1121.38 538.954L1129.91 538.696L1129.43 558.57L1129.76 571.08L1144.75 570.951L1144.56 577.777L1130.81 577.303L1121.49 577.626L1121.51 577.648Z" fill="#C2996D"/>
<path d="M1167.95 577.712L1168.27 558.699L1167.74 538.954L1174.2 539.083L1191.11 538.76L1190.98 545.392H1175.86L1175.66 554.198L1189 554.069L1188.81 560.551L1175.73 560.615L1175.92 571.08L1191.39 570.821L1191.19 577.776L1175 577.453L1167.93 577.712H1167.95Z" fill="#C2996D"/>
<path d="M1197.27 576.12C1197.27 572.416 1198.26 568.174 1198.26 568.174C1198.26 568.174 1207.77 571.49 1213.79 571.619C1214.24 571.619 1215.89 570.37 1215.89 568.174C1215.89 560.358 1196.73 560.552 1196.73 549.829C1196.73 543.347 1205.45 538.309 1209.34 538.309C1214.56 538.309 1218.6 539.17 1221.63 540.225C1221.31 544.273 1219.97 547.783 1219.97 547.783C1219.97 547.783 1211.45 544.596 1207.56 544.596C1206.76 544.596 1205.11 545.78 1205.11 547.503C1205.11 554.716 1223.54 554.135 1223.54 565.655C1223.54 572.416 1214.56 578.51 1211.19 578.51C1205.58 578.51 1200.36 577.455 1197.25 576.12H1197.27Z" fill="#C2996D"/>
<path d="M1235.92 577.712L1236.31 558.506L1236.05 545.522L1225.22 545.715L1225.29 538.696L1241.2 539.083L1256.26 538.76L1256.13 545.715L1244.51 545.457L1244.13 558.506L1244.51 577.389L1235.92 577.712Z" fill="#C2996D"/>
<path d="M1281.46 577.778L1278.02 567.313H1263.61L1260.23 577.713L1251.9 577.519C1251.9 577.519 1260.62 557.516 1268.1 538.632H1274.65C1274.65 538.632 1282.83 560.552 1290.11 577.519L1281.46 577.778ZM1265.67 561.693H1276.11L1270.89 548.386L1265.67 561.693Z" fill="#C2996D"/>
<path d="M1295.44 577.712H1294.1L1294.64 557.256L1294.45 538.911H1306.54C1315.39 538.911 1330.06 541.107 1330.06 556.998C1330.06 569.573 1321.82 578.186 1309.12 578.186C1302.65 578.186 1300.59 577.798 1295.44 577.712ZM1317.43 570.757C1319.75 567.85 1321.6 563.264 1321.6 558.247C1321.6 547.588 1314.79 544.746 1306.33 544.746C1305.21 544.746 1303.94 544.81 1302.95 544.94L1302.57 557.73L1302.95 571.381C1304.74 571.64 1306.99 571.855 1309.23 571.855C1312.41 571.855 1315.24 571.381 1317.41 570.8L1317.43 570.757Z" fill="#C2996D"/>
<path d="M1333.7 558.441C1333.7 546.512 1343.02 537.899 1353.72 537.899C1363.3 537.899 1372.75 545.112 1372.75 556.976C1372.75 569.702 1364.29 578.638 1352.86 578.638C1344.53 578.638 1333.7 572.221 1333.7 558.441ZM1360.79 570.822C1362.51 568.712 1364.16 564.664 1364.16 560.292C1364.16 550.624 1359 544.208 1350.95 544.208C1349.3 544.208 1346.46 545.004 1345.67 545.457C1344.42 546.921 1341.91 550.624 1341.91 556.115C1341.91 565.783 1347.66 572.2 1355.18 572.2C1356.9 572.2 1359.54 571.597 1360.79 570.8V570.822Z" fill="#C2996D"/>
<path d="M743.886 652.947L741.91 648.059L747.775 642.934C754.799 636.754 758.021 631.931 758.021 627.431C758.021 624.459 756.174 622.371 752.909 622.371C748.526 622.371 745.261 626.699 745.261 626.699C744.96 626.699 741.932 622.242 741.932 621.811C742.984 620.584 747.109 616.126 753.897 616.126C760.685 616.126 764.874 620.261 764.874 626.333C764.874 632.405 760.363 639.446 754.391 644.872L752.415 646.659H764.874L764.637 652.968H743.908L743.886 652.947Z" fill="#C2996D"/>
<path d="M768.917 635.138C768.917 623.834 774.717 616.405 783.159 616.405C791.601 616.405 796.048 624.135 796.048 633.523C796.048 644.892 791 653.419 781.677 653.419C776.199 653.419 768.917 647.606 768.917 635.117V635.138ZM786.682 646.507C787.864 644.591 788.83 640.457 788.83 635.741C788.83 629.195 787.649 622.133 781.441 622.133C780.452 622.133 779.035 622.628 778.476 622.994C777.553 624.544 776.135 628.054 776.135 633.868C776.135 640.909 778.412 647.283 783.352 647.283C784.469 647.283 785.995 646.917 786.682 646.486V646.507Z" fill="#C2996D"/>
<path d="M799.993 652.947L798.017 648.059L803.881 642.934C810.905 636.754 814.128 631.931 814.128 627.431C814.128 624.459 812.28 622.371 809.015 622.371C804.633 622.371 801.368 626.699 801.368 626.699C801.067 626.699 798.038 622.242 798.038 621.811C799.091 620.584 803.215 616.126 810.003 616.126C816.791 616.126 820.98 620.261 820.98 626.333C820.98 632.405 816.469 639.446 810.497 644.872L808.521 646.659H820.98L820.744 652.968H800.014L799.993 652.947Z" fill="#C2996D"/>
<path d="M838.146 652.946V644.161H823.775L821.992 640.953L838.082 617.16L845.17 616.169V638.972H850.047L849.81 644.226H845.192V652.946H838.168H838.146ZM829.446 639.036H838.146V625.062L829.446 639.036Z" fill="#C2996D"/>
<path d="M875.592 642.438L876.021 637.809L883.433 637.938L896.622 637.701L896.128 642.395L887.127 642.202L875.592 642.438Z" fill="#C2996D"/>
<path d="M923.6 652.947L921.624 648.059L927.488 642.934C934.513 636.754 937.735 631.931 937.735 627.431C937.735 624.459 935.888 622.371 932.622 622.371C928.24 622.371 924.975 626.699 924.975 626.699C924.674 626.699 921.645 622.242 921.645 621.811C922.698 620.584 926.822 616.126 933.61 616.126C940.399 616.126 944.588 620.261 944.588 626.333C944.588 632.405 940.076 639.446 934.105 644.872L932.128 646.659H944.588L944.351 652.968H923.622L923.6 652.947Z" fill="#C2996D"/>
<path d="M948.644 635.138C948.644 623.834 954.444 616.405 962.886 616.405C971.328 616.405 975.774 624.135 975.774 633.523C975.774 644.892 970.726 653.419 961.403 653.419C955.926 653.419 948.644 647.606 948.644 635.117V635.138ZM966.409 646.507C967.59 644.591 968.557 640.457 968.557 635.741C968.557 629.195 967.375 622.133 961.167 622.133C960.179 622.133 958.761 622.628 958.203 622.994C957.279 624.544 955.861 628.054 955.861 633.868C955.861 640.909 958.138 647.283 963.079 647.283C964.196 647.283 965.721 646.917 966.409 646.486V646.507Z" fill="#C2996D"/>
<path d="M978.227 652.322C978.227 651.59 980.074 646.379 980.439 646.379C980.439 646.379 983.038 647.24 986.862 647.24C988.838 647.24 990.492 646.874 991.867 646.508C992.598 645.324 993.22 643.795 993.22 641.943C993.22 638.11 989.891 635.763 984.95 635.763H984.155V630.876H985.079C988.838 630.746 991.738 628.593 991.738 625.492C991.738 623.318 990.063 621.961 987.55 621.961C983.919 621.961 981.191 624.674 981.191 624.674C980.504 624.674 978.227 620.217 978.227 619.55C979.451 618.624 983.661 616.018 988.838 616.018C995.433 616.018 999.02 619.657 999.02 623.985C999.02 628.012 996.056 631.091 992.855 632.34C996.679 633.395 1000.37 636.797 1000.37 641.728C1000.37 648.64 995.003 653.657 985.573 653.657C981.878 653.657 978.484 652.429 978.227 652.3V652.322Z" fill="#C2996D"/>
<path d="M1003.57 635.138C1003.57 623.834 1009.37 616.405 1017.81 616.405C1026.26 616.405 1030.7 624.135 1030.7 633.523C1030.7 644.892 1025.65 653.419 1016.33 653.419C1010.85 653.419 1003.57 647.606 1003.57 635.117V635.138ZM1021.34 646.507C1022.52 644.591 1023.48 640.457 1023.48 635.741C1023.48 629.195 1022.3 622.133 1016.09 622.133C1015.11 622.133 1013.69 622.628 1013.13 622.994C1012.21 624.544 1010.79 628.054 1010.79 633.868C1010.79 640.909 1013.07 647.283 1018.01 647.283C1019.12 647.283 1020.65 646.917 1021.34 646.486V646.507Z" fill="#C2996D"/>
<path d="M407.507 479.914C402.806 484.361 401.064 491.044 396.89 496.276C392.74 491.567 392.809 485.36 389.003 481.341C394.506 469.403 402.646 459.486 411.474 450.164C424.796 436.062 438.14 421.983 451.806 408.214C470.929 388.928 481.729 365.788 483.311 338.083C483.518 334.564 484.022 331.068 484.435 327.572C484.893 323.482 486.934 320.271 490.052 317.893C492.208 316.229 494.707 314.16 497.459 315.61C499.981 316.918 498.926 319.986 498.926 322.269C498.995 344.481 499.339 366.692 498.834 388.904C498.147 418.607 488.837 445.479 472.397 469.76C470.861 472.043 469.393 474.421 467.903 476.751C464.807 479.415 461.941 482.245 460.13 486.074C452.563 492.328 445.73 499.367 439.654 507.215C436.948 508.642 434.93 510.759 433.6 513.589C430.23 515.705 427.455 518.464 425.483 522.031C418.238 526.954 413.629 535.063 405.65 540.247C405.214 537.822 405.145 536.086 404.618 534.54C401.752 526.264 403.655 519.7 410.625 514.516C412.46 513.16 413.629 510.854 415.074 508.975C418.077 507.524 420.164 505.075 421.815 502.15C423.787 501.389 425.139 499.938 425.988 497.988C437.682 487.215 449.055 476.109 458.548 463.172C474.346 441.627 482.578 417.18 484.114 389.903C482.99 390.402 482.073 390.473 481.821 390.949C469.714 413.969 450.614 430.687 433.394 449.118C427.043 455.919 419.774 461.841 414.821 469.998C411.657 472.661 409.135 475.8 407.667 479.772L407.53 479.938L407.507 479.914Z" fill="#6F7857"/>
<path d="M231.544 311.495C231.544 306.977 228.035 303.314 223.679 303.267C206.94 303.148 190.225 303.029 173.487 302.934C154.134 303.076 134.759 303.742 115.406 303.172C99.333 302.696 85.3691 290.829 80.4163 275.252C75.2802 259.153 79.7514 242.458 92.2249 231.138C100.548 223.6 110.339 220.413 121.276 220.413C148.058 220.437 174.839 220.579 201.621 220.318C220.721 220.128 236.084 204.028 236.336 184.218C236.474 172.589 236.428 160.984 236.428 149.355C236.451 122.221 236.107 133.136 236.588 106.026C236.932 86.0494 249.727 69.3788 267.818 63.5524C285.634 57.8211 304.436 64.0042 316.13 79.5095C325.439 91.8282 326.953 105.74 323.697 120.556C323.399 121.911 322.711 123.196 322.321 124.527C320.326 131.234 321.473 135.3 325.76 137.084C330.14 138.891 334.336 136.584 336.56 130.33C344.173 108.903 341.788 88.5702 328.581 70.2824C315.58 52.3039 297.557 43.8378 276.118 45.9543C244.315 49.0934 222.326 74.3015 221.294 107.476C220.973 117.678 221.203 127.904 221.203 138.13C221.203 164.551 221.34 152.922 221.248 179.367C221.18 197.94 212.421 206.002 196.118 205.217C193.068 205.074 189.996 205.169 186.946 205.169C163.833 205.193 140.721 205.122 117.608 205.288C93.0504 205.478 72.0471 222.078 65.4664 246.239C58.7939 270.805 67.9886 295.847 88.6708 309.806C98.691 316.56 109.743 319.343 121.529 319.438C145.65 319.604 169.772 319.771 193.894 319.937C203.822 319.866 213.751 319.795 223.679 319.699C228.035 319.676 231.544 315.99 231.544 311.471" fill="#6F7857"/>
<path d="M558.477 319.51C580.925 319.51 603.35 319.51 625.798 319.51C639.418 319.51 651.983 316.038 663.081 307.5C689.885 286.906 692.362 247.001 670.235 222.934C659.366 211.139 646.182 205.027 630.269 205.122C603.74 205.289 577.233 205.241 550.704 205.146C534.218 205.098 527.27 197.821 526.88 180.604C526.812 177.441 526.858 174.254 526.858 171.091C526.858 136.894 527.064 140.77 526.858 106.573C526.628 71.2104 496.476 43.0773 463.32 45.717C430.99 48.2854 402.787 78.1546 408.565 118.154C409.276 123.006 410.468 127.857 412.784 132.233C415.329 137.084 418.952 138.773 422.735 136.965C426.84 135.039 427.757 131.472 426.794 127.263C426.014 123.838 424.822 120.533 424.088 117.084C418.218 89.2604 438.419 62.3876 465.797 61.5077C491.019 60.6992 511.747 80.818 512.022 107.334C512.412 144.694 512.16 144.005 512.16 181.365C512.16 185.598 511.999 189.831 513.031 193.993C516.883 209.617 529.838 220.271 545.935 220.39C572.785 220.58 599.658 220.461 626.508 220.39C639.349 220.342 650.63 224.314 659.412 234.349C670.533 247.096 672.917 261.959 666.818 277.607C660.719 293.35 648.865 302.435 632.378 303.125C615.411 303.838 598.374 303.339 581.383 303.362C564.118 303.362 546.852 303.386 529.586 303.386C525.275 303.386 521.767 307.048 521.813 311.519C521.836 315.966 525.321 319.534 529.609 319.534H558.477V319.438V319.51Z" fill="#6F7857"/>
<path d="M261.241 269.355C216.689 269.236 172.16 269.402 127.609 269.426C124.559 269.426 121.486 269.474 118.437 269.236C114.034 268.879 111.489 266.097 111.489 261.65C111.489 257.131 114.264 254.587 118.529 254.087C121.211 253.778 123.963 253.85 126.669 253.85C151.157 253.85 175.623 253.921 200.111 253.945C240.261 253.992 269.083 224.504 269.266 182.934C269.427 148.023 269.289 151.186 269.335 116.275C269.335 112.756 269.197 109.165 269.771 105.74C270.803 99.5811 275.503 95.6572 281.144 95.6809C286.394 95.6809 290.476 99.1768 292.012 105.003C292.287 106.002 292.127 107.12 292.356 108.142C293.709 114.159 296.69 116.989 301.023 116.418C305.724 115.8 308.292 111.567 307.787 105.193C306.251 85.6453 284.858 73.7071 268.257 83.1483C257.87 89.0698 254.202 98.5585 254.27 110.473C254.454 145.74 254.293 142.934 254.362 178.178C254.362 183.838 254.27 189.498 253.078 195.015C248.286 217.013 235.17 231.02 214.259 236.656C208.435 238.225 202.106 238.011 196.007 238.059C170.509 238.249 144.989 238.011 119.492 238.416C105.252 238.63 95.9202 248.618 96.1954 262.197C96.4705 275.276 105.688 284.385 119.492 285.027C123.229 285.193 126.967 284.955 130.704 285.074C138.844 285.336 147.007 284.456 155.124 285.716C178.856 284.266 202.633 285.407 226.388 285.122C239.297 284.979 252.23 284.789 265.093 285.526C273.439 286.026 280.96 288.76 287.289 293.089H309.094C297.951 278.725 280.685 269.402 261.218 269.331" fill="#C2996D"/>
<path d="M486.474 285.24C509.61 285.145 532.723 285.216 555.858 285.216V285.169C578.65 285.169 601.419 285.169 624.211 285.169C627.948 285.169 631.663 285.288 635.354 284.289C647.965 280.864 655.12 267.594 651.222 254.681C647.92 243.766 639.871 238.201 626.779 238.177C601.281 238.106 575.761 238.177 550.264 238.153C544.141 238.153 538.042 238.011 532.081 236.203C508.761 229.14 494.155 208.617 494.087 182.315C493.995 144.931 494.224 145.621 494.041 108.237C493.949 89.1404 478.953 76.7742 461.229 80.6981C449.741 83.2427 440.776 94.5387 440.776 106.477C440.776 112.327 443.367 116.227 447.724 116.37C452.585 116.513 455.221 113.802 455.703 108.76C455.84 107.357 456.093 105.954 456.505 104.622C458.363 98.8194 462.444 95.6327 467.764 95.704C472.969 95.7991 477.394 99.2712 478.724 105.05C479.412 108.07 479.32 111.328 479.32 114.491C479.343 150.472 479.343 148.356 479.32 184.336C479.32 189.283 479.504 194.182 480.558 199.057C487.552 231.423 513.599 253.54 545.678 253.873C571.175 254.134 596.695 253.92 622.193 253.944C624.899 253.944 627.673 253.778 630.333 254.229C634.529 254.943 637.12 257.63 636.822 262.22C636.57 266.215 634.139 268.712 630.287 269.093C626.916 269.449 623.5 269.354 620.106 269.354C576.564 269.378 533.044 269.426 489.524 269.33C481.934 269.33 474.643 270.519 467.489 272.921C455.611 276.917 445.683 284.574 438.506 294.348L459.303 294.467C466.778 288.427 475.858 285.311 486.497 285.264" fill="#C2996D"/>
<path d="M652.276 106.787C638.198 110.901 630.608 125.812 635.446 140.152C637.716 146.882 642.027 151.614 648.974 153.16C652.23 153.897 655.211 152.994 656.816 149.759C658.307 146.763 658.215 143.576 656.151 140.794C655.349 139.724 654.019 139.058 653.033 138.107C646.957 132.233 648.607 124.884 656.587 122.221C665.369 119.296 675.206 125.978 676.971 136.085C680.021 153.517 666.263 167.643 649.433 164.385C637.808 162.149 630.906 154.421 627.421 143.339C621.069 123.125 601.442 110.14 579.911 110.473C567.667 110.497 556.523 114.064 546.732 121.84C543.408 124.48 540.725 127.524 540.45 132.185C540.198 136.608 540.679 141.174 544.646 143.339C549.209 145.812 549.965 140.223 551.96 138.035C569.111 119.034 606.142 123.22 613.411 149.641C615.2 156.109 618.616 161.912 623.133 166.811C634.437 179.129 648.355 182.768 664.085 179.224C679.356 175.776 687.771 165.146 691.233 149.855C692.334 145.027 692.357 140.057 691.944 135.134C690.224 114.968 671.055 101.27 652.276 106.763" fill="#6F7857"/>
<path d="M62.168 117.869C54.1198 131.948 54.0969 146.763 61.2279 161.127C67.9233 174.564 79.4568 180.438 99.176 180.58C106.49 180.723 117.153 176.086 125.637 166.478C130.268 161.222 133.272 154.92 135.588 148.214C139.899 135.658 149.047 129.118 161.292 127.049C176.081 124.552 188.784 128.618 198.621 140.913C202.06 145.218 204.078 144.813 206.623 139.914C209.558 134.278 208.618 128.69 203.711 123.696C198.987 118.916 193.141 116.181 187.087 113.731C165.923 105.218 131.185 112.067 120.844 143.672C119.652 147.287 117.909 150.854 115.731 153.922C108.898 163.577 96.4704 167.358 85.7165 163.41C76.132 159.891 70.6977 150.235 71.4315 138.06C71.913 130.235 75.8797 124.861 82.942 122.411C88.7202 120.414 94.9341 122.007 97.6168 126.216C100.345 130.473 99.5658 133.398 93.7647 139.32C90.7838 142.364 89.3851 145.598 91.6093 149.641C93.6041 153.279 97.8232 154.445 102.386 152.281C109.448 148.904 113.117 142.792 114.103 134.944C115.685 122.411 109.517 111.995 98.0066 107.572C86.1521 103.006 67.8087 107.953 62.1451 117.869" fill="#6F7857"/>
<path d="M365.709 164.099C362.018 159.271 358.808 154.539 355.116 150.258C348.788 142.957 342.964 142.054 332.989 146.762C336.176 149.997 338.699 152.494 341.175 155.014C354.038 168.26 362.431 184.099 365.893 202.529C367.636 211.804 367.773 221.316 367.75 230.734C367.75 234.991 369.034 236.727 373.345 236.631C380.132 236.512 380.522 236.37 380.637 228.879C380.682 226.144 380.682 223.385 380.728 220.65C381.049 194.016 390.519 171.471 409.092 153.064C410.376 151.804 411.752 150.662 412.99 149.378C415.191 147.119 414.113 145.383 411.775 144.646C405.033 142.482 398.888 143.79 394.05 149.259C390.886 152.827 388.272 156.941 385.268 160.674C384.122 162.101 383.87 165.002 380.614 163.932V152.137C380.614 140.555 380.637 128.974 380.614 117.393C380.614 115.347 381.347 112.446 379.054 111.685C376.051 110.686 372.542 110.52 369.539 111.756C366.81 112.898 367.865 116.013 367.842 118.296C367.75 130.781 367.842 143.266 367.75 155.752C367.75 158.486 368.736 161.673 365.732 164.004" fill="#C2996D"/>
<path d="M355.228 230.117C355.985 216.419 350.046 206.264 338.352 200.105C334.592 198.131 333.033 196.229 334.936 192.067C335.647 190.497 336.174 188.761 336.472 187.049C339.774 168.642 325.695 152.447 308.384 154.802C301.597 155.729 296.162 159.106 292.654 165.242C290.797 168.5 290.774 172.091 293.388 175.039C295.314 177.204 297.882 178.512 300.725 177.132C302.537 176.276 304.256 174.992 305.632 173.517C309.003 169.903 312.603 169.546 316.592 172.138C320.811 174.873 322.531 179.796 321.109 184.98C319.275 191.686 314.208 196.133 307.008 196.752C302.605 197.108 298.18 196.823 293.755 196.847C285.684 196.918 285.615 196.894 283.62 204.861C279.676 220.557 272.568 234.326 261.172 245.622C259.544 247.239 257.274 248.5 256.861 251.995C260.828 252.281 264.887 252.043 268.624 252.994C274.288 254.469 277.406 251.781 280.479 247.477C286.991 238.345 292.379 228.571 295.727 217.774C297.011 213.66 299.143 212.233 303.11 212.352C309.576 212.566 316.042 212.091 322.485 212.495C330.9 213.042 337.733 218.416 339.659 225.218C341.585 231.995 336.128 239.558 329.708 239.058C326.314 238.797 324.503 236.062 322.187 234.041C318.931 231.234 315.423 230.783 312.144 234.064C308.934 237.275 309.186 240.937 311.341 244.623C312.946 247.382 315.217 249.522 317.808 251.258C332.872 261.318 354.151 249.427 355.205 230.141" fill="#6F7857"/>
<path d="M443.665 174.634C447.311 177.63 450.796 178.748 454.625 175.419C458.042 172.446 457.996 167.737 454.511 163.171C450.75 158.249 445.775 155.49 439.744 154.777C422.662 152.755 408.583 167.999 412.389 186.192C414.178 194.777 413.146 198.653 405.648 203.195C395.445 209.378 391.937 220.294 393.587 232.494C395.009 242.886 401.062 249.64 410.349 253.255C420.461 257.202 432.498 253.041 437.199 244.265C439.607 239.747 439.033 235.49 435.456 233.088C431.169 230.211 428.027 232.375 424.657 235.442C419.612 240.056 416.31 240.056 412.183 236.441C407.964 232.755 407.07 227.404 409.982 222.149C413.513 215.752 419.268 212.922 426.009 212.47C432.453 212.066 438.919 212.517 445.362 212.208C449.489 211.994 451.53 213.802 452.699 217.702C455.244 226.168 459.486 233.754 463.843 241.364C468.704 249.854 474.39 255.823 484.961 252.422C486.841 251.828 488.973 252.089 490.991 251.97C491.335 251.352 491.702 250.734 492.046 250.139C476.981 237.155 468.039 220.532 463.843 201.15C463.063 197.583 461.137 196.774 458.088 196.822C452.653 196.917 447.196 197.036 441.785 196.727C434.654 196.322 429.38 191.923 427.293 185.407C425.872 180.936 426.835 177.012 429.793 173.659C433.668 169.259 437.382 169.45 443.688 174.61" fill="#6F7857"/>
<path d="M572.187 43.9332C569.459 41.8643 566.271 43.6954 563.52 45.0034C560.012 46.6681 557.398 49.4267 556.114 53.303C555.013 56.6324 554.279 60.1044 552.995 63.3387C550.358 69.9023 551.321 78.1306 544.534 82.8868C542.86 84.0521 544.167 86.1448 544.695 87.7144C545.681 90.6633 546.781 93.5883 547.997 96.9891C575.122 90.259 601.055 88.7132 625.223 104.908C628.547 107.144 630.428 105.312 631.987 103.029C633.89 100.247 639.485 98.1068 635.77 93.8261C632.698 90.2828 634.074 87.429 634.922 84.2661C636.642 77.8214 638.797 71.5194 640.356 65.0509C640.952 62.5063 643.52 59.6526 641.25 57.1793C638.728 54.397 635.564 56.9178 632.629 57.1556C629.396 57.4172 628.089 59.6764 626.553 61.9356C623.939 65.7881 623.136 70.3066 621.852 74.6585C619.353 83.2197 619.307 83.196 610.846 80.6038C610.204 80.4136 609.562 80.152 608.897 80.0568C604.151 79.2721 602.798 76.7513 604.357 71.9475C606.627 64.9558 608.599 57.8452 610.41 50.7109C611.672 45.7644 610.204 44.171 605.504 44.9796C597.822 46.3114 594.108 51.7572 592.021 59.0343C590.393 64.6704 590.76 72.2091 586.128 75.3244C581.244 78.5824 574.228 76.1805 568.174 76.6324C567.578 76.6799 566.913 76.2043 566.065 75.8951C566.936 67.8333 570.49 60.4849 572.164 52.6371C572.783 49.7121 575.443 46.4065 572.21 43.957" fill="#C2996D"/>
<path d="M129.785 82.4348C126.46 77.7975 126.3 71.9235 124.282 66.763C121.897 60.675 117.862 56.8938 111.51 56.1328C107.406 55.6334 106.03 57.2506 107.177 61.6501C109.103 69.1174 111.396 76.4895 113.459 83.933C114.376 87.2386 115.431 90.1875 112.703 93.7309C108.736 98.9152 115.271 100.532 117.059 103.719C118.687 106.62 121.003 106.382 123.892 104.456C145.01 90.4491 167.985 89.807 191.602 95.0389C200.682 97.0603 201.967 96.4182 204.007 87.1673C204.489 84.9794 204.81 82.9342 202.586 81.6501C199.146 79.6524 198.963 75.9426 197.977 72.637C196.303 66.9295 194.79 61.1507 193.047 55.4432C191.694 50.9485 189.424 47.0247 185.091 44.9795C182.018 43.5288 178.487 41.7215 175.575 44.3612C173.098 46.5966 175.621 49.6644 176.217 52.2089C177.478 57.6786 179.358 62.9818 180.826 68.3801C181.513 70.9247 183.027 73.4931 181.192 76.5133C176.125 76.5133 171.035 76.2993 165.99 76.5847C162.115 76.7987 160.556 74.7059 159.616 71.329C158.126 65.9307 156.773 60.4372 154.893 55.1816C152.691 49.0461 148.197 45.5502 141.846 45.0033C138.567 44.7179 136.503 45.8118 137.718 49.9022C139.025 54.2779 140.103 58.7012 141.364 63.1007C144.452 73.723 140.585 80.1835 129.762 82.4824" fill="#C2996D"/>
<path d="M605.775 169.261C605.775 155.135 594.31 142.911 580.667 142.507C566.542 142.079 554.619 153.969 554.275 168.833C553.931 183.72 565.258 195.8 579.727 195.991C593.943 196.157 605.775 184.005 605.775 169.261ZM568.377 169.237C568.423 162.745 573.788 157.18 580.002 157.227C586.216 157.251 591.627 162.935 591.512 169.332C591.421 175.848 586.078 181.365 579.887 181.341C573.605 181.318 568.331 175.777 568.377 169.237Z" fill="#C2996D"/>
<path d="M142.906 169.307C143.066 184.48 154.439 196.228 168.839 196.085C183.078 195.942 194.245 183.933 194.084 168.951C193.924 153.921 182.138 142.03 167.876 142.506C154.095 142.958 142.745 155.134 142.906 169.307ZM179.96 168.903C180.235 175.562 175.168 181.317 168.931 181.459C162.671 181.602 157.053 176.132 156.939 169.807C156.847 163.195 161.914 157.464 168.059 157.226C174.342 156.989 179.685 162.244 179.96 168.903Z" fill="#C2996D"/>
<path d="M236.133 515.134C221.114 494.706 210.888 471.852 205.728 447.215C204.123 439.462 196.924 434.254 189.38 435.325L188.715 435.42L188.807 436.109C193.049 468.047 205.339 498.582 224.347 524.433C233.129 536.371 243.401 547.286 254.843 556.894C243.31 566.549 233.014 577.512 224.232 589.474C220.495 594.54 216.987 599.843 213.777 605.241L213.433 605.836L214.006 606.192C220.495 610.33 229.116 608.547 233.633 602.102C234.413 600.984 235.216 599.89 236.018 598.796C249.042 581.079 265.803 565.669 284.537 554.207C290.544 578.131 291.599 602.482 287.655 626.549L287.54 627.239L302.146 629.807L302.261 629.117C306.572 602.768 305.402 576.157 298.799 550.021C292.837 526.383 282.129 503.481 267.867 483.791L267.454 483.22L266.904 483.648C260.828 488.404 259.246 497.346 263.35 504.005C270.137 515.039 275.732 526.858 280.02 539.153C275.594 541.745 271.284 544.528 267.156 547.429C255.439 538.035 245.006 527.167 236.133 515.11" fill="#6F7857"/>
<path d="M157.554 435.204L156.889 435.276L156.957 435.965C161.36 475.204 175.989 512.684 199.262 544.312C205.843 553.278 213.18 561.792 221.068 569.663L221.549 570.139L231.799 559.081L231.317 558.605C223.98 551.28 217.147 543.361 211.025 535.014C192.177 509.378 179.222 479.152 173.604 447.642C172.206 439.747 165.12 434.277 157.531 435.204" fill="#6F7857"/>
<path d="M125.799 435.086L125.134 435.157L125.203 435.847C129.72 482.387 146.641 526.762 174.157 564.17C182.044 574.896 190.872 585.074 200.388 594.444L200.869 594.919L211.05 583.766L210.569 583.29C201.626 574.491 193.326 564.931 185.919 554.848C162.875 523.528 147.536 486.501 141.597 447.809C140.382 439.866 133.411 434.254 125.776 435.062" fill="#6F7857"/>
<path d="M289.171 666.239C240.722 651.709 198.509 623.766 167.05 585.478C135.659 547.262 115.665 499.581 109.245 447.547C108.282 439.842 101.701 434.325 94.249 434.943L93.584 434.991L93.6298 435.681C98.2615 493.754 118.623 547.286 152.535 590.449C186.287 633.421 232.169 664.551 285.205 680.484C295.385 683.552 306.987 688.308 316.228 693.255C321.823 696.251 325.308 702.125 325.308 708.617V681.459C309.601 672.684 293.734 667.595 289.194 666.215" fill="#6F7857"/>
<path d="M590.186 435.966L590.254 435.277L589.59 435.182C581.977 434.254 574.938 439.724 573.516 447.619C567.898 479.153 554.966 509.355 536.118 534.991C529.996 543.315 523.163 551.257 515.803 558.582L515.321 559.058L525.571 570.14L526.052 569.664C533.94 561.793 541.277 553.279 547.881 544.313C571.154 512.684 585.76 475.205 590.163 435.966" fill="#6F7857"/>
<path d="M546.756 594.468C556.272 585.122 565.099 574.919 572.987 564.194C600.502 526.786 617.447 482.411 621.964 435.871L622.033 435.181L621.368 435.11C613.733 434.325 606.762 439.914 605.547 447.857C599.608 486.549 584.291 523.552 561.224 554.896C553.818 564.979 545.518 574.539 536.575 583.338L536.094 583.814L546.274 594.967L546.756 594.491V594.468Z" fill="#6F7857"/>
<path d="M511.148 598.796C511.951 599.89 512.753 601.008 513.533 602.101C518.027 608.546 526.649 610.33 533.138 606.192L533.711 605.835L533.344 605.241C530.157 599.866 526.626 594.539 522.911 589.474C514.106 577.512 503.811 566.572 492.3 556.917C503.765 547.31 514.014 536.394 522.796 524.456C541.805 498.63 554.095 468.071 558.337 436.133L558.429 435.443L557.764 435.348C550.197 434.278 543.043 439.486 541.415 447.238C536.256 471.876 526.052 494.729 511.011 515.134C502.137 527.191 491.704 538.059 479.987 547.452C475.883 544.551 471.549 541.769 467.124 539.176C471.412 526.882 477.006 515.062 483.794 504.004C487.898 497.322 486.339 488.38 480.24 483.647L479.712 483.219L479.299 483.766C465.037 503.457 454.352 526.358 448.368 549.997C441.764 576.156 440.595 602.767 444.905 629.093L445.02 629.783L459.626 627.214L459.511 626.525C455.568 602.458 456.622 578.106 462.63 554.182C481.363 565.669 498.124 581.079 511.148 598.772" fill="#6F7857"/>
<path d="M430.943 693.278C440.183 688.331 451.786 683.575 461.966 680.507C515.002 664.597 560.884 633.444 594.636 590.472C628.548 547.285 648.909 493.777 653.541 435.704L653.587 435.014L652.922 434.966C645.47 434.348 638.889 439.865 637.949 447.57C631.506 499.58 611.512 547.285 580.144 585.501C548.685 623.789 506.449 651.732 457.999 666.262C453.437 667.618 437.592 672.707 421.886 681.506V708.664C421.886 702.172 425.371 696.298 430.966 693.301" fill="#6F7857"/>
<path d="M690.318 414.373H521.673V397.774H676.973C684.334 397.774 690.318 403.981 690.318 411.615V414.373Z" fill="#6F7857"/>
<path d="M58.1084 414.373H230.675V397.774H71.4533C64.093 397.774 58.1084 403.981 58.1084 411.615V414.373Z" fill="#6F7857"/>
<path d="M673.121 358.963C673.167 354.897 673.144 350.973 673.121 346.882V344.338C673.121 341.984 673.121 339.558 673.121 336.966C673.167 330.687 668.764 331.995 665.233 331.948C661.931 331.9 658.125 331.163 658.125 336.728C658.148 343.387 658.148 349.475 658.148 355.444C658.102 359.51 658.148 363.434 658.148 367.525C658.148 368.357 658.148 369.213 658.148 370.045C658.148 372.4 658.148 374.825 658.148 377.418C658.102 383.72 662.505 382.388 666.013 382.459C669.315 382.507 673.144 383.244 673.121 377.679C673.098 371.02 673.098 364.932 673.098 358.963" fill="#C2996D"/>
<path d="M639.328 358.963C639.374 354.897 639.351 350.973 639.328 346.882V344.338C639.328 341.984 639.328 339.558 639.328 336.966C639.374 330.687 634.971 331.995 631.44 331.948C628.138 331.9 624.332 331.163 624.332 336.728C624.355 343.387 624.355 349.475 624.355 355.444C624.309 359.51 624.355 363.434 624.355 367.525V370.045C624.355 372.4 624.355 374.825 624.355 377.418C624.309 383.72 628.712 382.388 632.22 382.459C635.522 382.507 639.351 383.244 639.328 377.679C639.305 371.02 639.305 364.932 639.305 358.963" fill="#C2996D"/>
<path d="M605.506 358.963C605.552 354.897 605.529 350.973 605.506 346.882V344.338C605.506 341.984 605.506 339.558 605.506 336.966C605.552 330.687 601.149 331.995 597.618 331.948C594.316 331.9 590.51 331.163 590.51 336.728C590.533 343.387 590.533 349.475 590.533 355.444C590.487 359.51 590.533 363.434 590.533 367.525C590.533 368.357 590.533 369.213 590.533 370.045C590.533 372.4 590.533 374.825 590.533 377.418C590.487 383.72 594.889 382.388 598.397 382.459C601.699 382.507 605.529 383.244 605.506 377.679C605.483 371.02 605.483 364.932 605.483 358.963" fill="#C2996D"/>
<path d="M571.684 358.963C571.73 354.897 571.707 350.973 571.684 346.882V344.338C571.684 341.984 571.684 339.558 571.684 336.966C571.73 330.687 567.328 331.995 563.797 331.948C560.495 331.9 556.688 331.163 556.688 336.728C556.711 343.387 556.711 349.475 556.711 355.444C556.666 359.51 556.711 363.434 556.711 367.525C556.711 368.357 556.711 369.213 556.711 370.045C556.711 372.4 556.711 374.825 556.711 377.418C556.666 383.72 561.068 382.388 564.576 382.459C567.878 382.507 571.707 383.244 571.684 377.679C571.661 371.02 571.661 364.932 571.661 358.963" fill="#C2996D"/>
<path d="M537.863 358.963C537.909 354.897 537.886 350.973 537.863 346.882V344.338C537.863 341.984 537.863 339.558 537.863 336.966C537.909 330.687 533.506 331.995 529.975 331.948C526.674 331.9 522.867 331.163 522.867 336.728C522.867 343.387 522.89 349.475 522.89 355.444C522.844 359.51 522.89 363.434 522.89 367.525C522.89 368.357 522.89 369.213 522.89 370.045C522.89 372.4 522.89 374.825 522.89 377.418C522.844 383.72 527.247 382.388 530.755 382.459C534.057 382.507 537.886 383.244 537.863 377.679C537.84 371.02 537.84 364.932 537.84 358.963" fill="#C2996D"/>
<path d="M230.652 358.963C230.698 354.897 230.675 350.973 230.652 346.882V344.338C230.652 341.984 230.652 339.558 230.652 336.966C230.698 330.687 226.295 331.995 222.764 331.948C219.463 331.9 215.656 331.163 215.656 336.728C215.656 343.387 215.679 349.475 215.679 355.444C215.633 359.51 215.679 363.434 215.679 367.525C215.679 368.357 215.679 369.213 215.679 370.045C215.679 372.4 215.679 374.825 215.679 377.418C215.633 383.72 220.036 382.388 223.544 382.459C226.846 382.507 230.675 383.244 230.652 377.679C230.629 371.02 230.629 364.932 230.629 358.963" fill="#C2996D"/>
<path d="M196.831 358.963C196.877 354.897 196.854 350.973 196.831 346.882V344.338C196.831 341.984 196.831 339.558 196.831 336.966C196.877 330.687 192.474 331.995 188.943 331.948C185.641 331.9 181.835 331.163 181.835 336.728C181.835 343.387 181.858 349.475 181.858 355.444C181.812 359.51 181.858 363.434 181.858 367.525C181.858 368.357 181.858 369.213 181.858 370.045C181.858 372.4 181.858 374.825 181.858 377.418C181.812 383.72 186.214 382.388 189.723 382.459C193.024 382.507 196.854 383.244 196.831 377.679C196.808 371.02 196.808 364.932 196.808 358.963" fill="#C2996D"/>
<path d="M163.033 358.963C163.079 354.897 163.056 350.973 163.033 346.882V344.338C163.033 341.984 163.033 339.558 163.033 336.966C163.079 330.687 158.676 331.995 155.145 331.948C151.843 331.9 148.037 331.163 148.037 336.728C148.06 343.387 148.06 349.475 148.06 355.444C148.014 359.51 148.06 363.434 148.06 367.525V370.045C148.06 372.4 148.06 374.825 148.06 377.418C148.014 383.72 152.417 382.388 155.925 382.459C159.227 382.507 163.056 383.244 163.033 377.679C163.01 371.02 163.01 364.932 163.01 358.963" fill="#C2996D"/>
<path d="M129.211 358.963C129.257 354.897 129.234 350.973 129.211 346.882V344.338C129.211 341.984 129.211 339.558 129.211 336.966C129.257 330.687 124.854 331.995 121.323 331.948C118.021 331.9 114.215 331.163 114.215 336.728C114.238 343.387 114.238 349.475 114.238 355.444C114.192 359.51 114.238 363.434 114.238 367.525C114.238 368.357 114.238 369.213 114.238 370.045C114.238 372.4 114.238 374.825 114.238 377.418C114.192 383.72 118.594 382.388 122.103 382.459C125.404 382.507 129.234 383.244 129.211 377.679C129.188 371.02 129.188 364.932 129.188 358.963" fill="#C2996D"/>
<path d="M95.3972 358.963C95.443 354.897 95.4201 350.973 95.3972 346.882V344.338C95.3972 341.984 95.3972 339.558 95.3972 336.966C95.443 330.687 91.0406 331.995 87.5095 331.948C84.2077 331.9 80.4014 331.163 80.4014 336.728C80.4243 343.387 80.4243 349.475 80.4243 355.444C80.3785 359.51 80.4243 363.434 80.4243 367.525C80.4243 368.357 80.4243 369.213 80.4243 370.045C80.4243 372.4 80.4243 374.825 80.4243 377.418C80.3785 383.72 84.7809 382.388 88.2891 382.459C91.5909 382.507 95.4201 383.244 95.3972 377.679C95.3743 371.02 95.3742 364.932 95.3742 358.963" fill="#C2996D"/>
<path d="M169.34 639.034C117.405 588.88 84.5467 522.126 75.8565 449.712C74.8476 441.294 67.7395 435.134 59.5996 435.776C65.5842 517.821 100.964 594.016 159.228 650.306C211.025 700.342 276.764 730.473 346.675 736.775V721.317C280.547 715.063 218.385 686.406 169.362 639.034" fill="#C2996D"/>
<path d="M672.594 449.426C663.972 521.887 631.137 588.712 579.179 638.938C531.165 685.383 470.563 713.801 405.948 720.84V736.369C474.347 729.259 538.503 699.295 589.291 650.21C647.578 593.873 682.912 517.606 688.828 435.466C680.665 434.848 673.58 441.007 672.571 449.426" fill="#C2996D"/>
<path d="M378.481 509.379C384.718 532.709 384.763 556.585 384.626 580.557C384.374 620.342 384.557 686.121 384.557 725.907C384.557 727.667 384.626 729.427 384.534 731.187C384.397 733.588 385.383 736.846 382.952 737.964C379.008 739.795 374.353 738.844 370.249 737.822C370.203 733.993 370.089 730.14 370.089 726.311C370.089 688.975 369.813 625.669 370.249 588.357C370.433 571.401 364.93 557.679 353.304 545.931C334.342 526.764 315.654 507.311 297.036 487.762C271.424 460.842 257.528 428.452 255.763 390.569C255.671 388.476 255.167 386.431 254.846 384.338C255.671 375.943 256.176 367.548 254.937 359.154C255.763 357.037 255.717 354.921 255.029 352.78C255.832 347.858 255.969 342.911 254.983 337.989C255.579 336.562 255.579 335.159 254.983 333.732C256.611 327.953 254.364 321.817 256.382 316.062C265.416 316.609 269.291 320.438 270.369 329.855C271.286 337.87 271.813 345.955 273.235 353.874C276.835 374.231 286.58 391.258 300.452 405.884C313.774 419.915 327.05 433.969 340.601 447.739C356.835 464.267 369.126 483.339 376.601 505.67C377.036 506.978 377.862 508.119 378.527 509.332M367.543 539.106C368.85 534.35 368.025 531.615 367.498 528.88C362.384 502.221 350.301 479.439 331.934 460.152C320.974 448.642 309.991 437.108 298.87 425.765C289.859 416.585 282.223 406.336 275.413 395.325C274.267 393.47 274.083 390.426 270.805 390.616C270.805 393.113 270.552 395.587 270.827 397.988C274.427 428.309 286.19 454.659 307.033 476.419C322.808 492.899 338.698 509.261 354.543 525.67C358.578 529.831 362.614 533.993 367.521 539.058" fill="#6F7857"/>
<path d="M405.375 328.094C405.214 333.921 402.119 338.035 397.877 338.059C393.13 338.082 390.104 333.326 390.287 326.097C390.448 319.533 392.236 317.107 396.868 317.06C402.256 317.012 405.581 321.317 405.375 328.094Z" fill="#C2996D"/>
<path d="M374.44 416.822C378.316 416.989 382.58 423.196 382.237 428.166C381.824 434.135 378.774 437.773 374.303 437.678C369.557 437.583 365.98 432.47 366.117 425.978C366.209 421.055 370.244 416.656 374.463 416.822" fill="#C2996D"/>
<path d="M374.237 465.193C369.72 465.05 366.028 460.056 366.166 454.325C366.303 449.259 370.27 444.36 374.237 444.337C378.089 444.313 382.56 450.591 382.239 455.633C381.872 461.626 378.754 465.359 374.214 465.216" fill="#C2996D"/>
<path d="M374.124 251.567C378.664 251.805 382.562 256.965 382.264 262.316C382.012 266.906 377.54 272.375 374.124 272.256C369.859 272.137 365.846 266.573 366.167 261.246C366.511 255.752 370.134 251.353 374.124 251.567Z" fill="#C2996D"/>
<path d="M405.377 354.8C405.515 361.055 402.19 365.692 397.673 365.573C393.431 365.454 390.405 361.316 390.29 355.49C390.175 349.212 393.477 344.598 397.994 344.717C402.236 344.836 405.263 348.95 405.377 354.8Z" fill="#C2996D"/>
<path d="M374.145 279.058C378.662 279.296 382.583 284.504 382.285 289.831C382.009 294.468 377.584 299.89 374.145 299.771C369.834 299.629 365.867 294.111 366.211 288.737C366.555 283.22 370.178 278.82 374.168 279.034" fill="#C2996D"/>
<path d="M373.706 354.992C369.808 355.039 366.208 350.141 366.163 344.671C366.117 339.605 369.854 334.588 373.89 334.302C377.398 334.041 382.03 339.51 382.259 344.124C382.488 348.951 377.788 354.897 373.706 354.968" fill="#C2996D"/>
<path d="M390.308 299.938C390.399 293.993 393.403 289.808 397.714 289.689C402.07 289.57 405.487 294.017 405.349 299.605C405.189 305.955 400.924 310.901 396.017 310.473C392.371 310.164 390.239 306.24 390.331 299.938" fill="#C2996D"/>
<path d="M405.373 410.4C405.304 416.346 402.254 420.507 397.944 420.603C393.587 420.698 390.216 416.274 390.331 410.638C390.469 404.36 394.137 399.366 398.356 399.746C402.598 400.103 405.441 404.455 405.373 410.4Z" fill="#C2996D"/>
<path d="M382.24 370.521C382.4 376.371 378.227 382.316 373.871 382.53C370.019 382.697 366.396 378.036 366.166 372.614C365.937 367.263 370.019 361.793 374.26 361.77C377.448 361.77 382.125 366.882 382.217 370.521" fill="#C2996D"/>
<path d="M390.31 272.185C390.448 266.335 393.612 262.149 397.9 262.173C402.509 262.221 405.65 266.882 405.398 273.35C405.169 278.82 402.188 282.886 398.45 282.863C393.704 282.815 390.196 278.201 390.31 272.185Z" fill="#C2996D"/>
<path d="M319.253 363.457C319.322 357.773 323.38 353.017 327.851 353.398C331.268 353.683 334.409 359.224 334.294 364.765C334.203 369.807 331.084 373.849 327.14 374.087C322.555 374.349 319.161 369.783 319.253 363.457Z" fill="#C2996D"/>
<path d="M390.308 382.791C390.262 376.822 393.335 372.304 397.347 372.447C401.612 372.589 405.373 377.75 405.373 383.505C405.373 388.974 401.819 393.35 397.554 393.112C393.381 392.875 390.354 388.594 390.308 382.791Z" fill="#C2996D"/>
<path d="M414.546 335.515C414.89 329.95 418.536 325.789 422.64 326.241C426.744 326.692 430.092 332.495 429.565 338.203C429.083 343.197 425.713 346.764 421.631 346.574C416.633 346.312 414.133 342.412 414.546 335.515Z" fill="#C2996D"/>
<path d="M334.343 308.903C334.251 314.801 331.27 318.915 326.982 319.034C322.419 319.176 319.118 314.563 319.255 308.261C319.37 302.625 322.763 298.487 327.074 298.724C331.408 298.939 334.411 303.172 334.343 308.903Z" fill="#C2996D"/>
<path d="M405.394 438.201C405.21 444.028 402.092 448.142 397.804 448.118C393.218 448.118 390.054 443.457 390.283 437.084C390.467 431.543 394.043 427.405 398.331 427.762C402.711 428.142 405.577 432.351 405.394 438.178" fill="#C2996D"/>
<path d="M342.545 328.094C342.706 333.921 345.801 338.035 350.043 338.059C354.789 338.082 357.816 333.326 357.633 326.097C357.472 319.533 355.684 317.107 351.052 317.06C345.664 317.012 342.339 321.317 342.545 328.094Z" fill="#C2996D"/>
<path d="M342.548 354.8C342.41 361.055 345.735 365.692 350.252 365.573C354.494 365.454 357.521 361.316 357.635 355.49C357.75 349.212 354.448 344.598 349.931 344.717C345.689 344.836 342.663 348.95 342.548 354.8Z" fill="#C2996D"/>
<path d="M357.638 299.938C357.547 293.993 354.543 289.808 350.232 289.689C345.876 289.57 342.459 294.017 342.597 299.605C342.757 305.955 347.022 310.901 351.929 310.473C355.575 310.164 357.707 306.24 357.616 299.938" fill="#C2996D"/>
<path d="M342.551 410.4C342.62 416.346 345.669 420.507 349.98 420.603C354.336 420.698 357.707 416.274 357.592 410.638C357.455 404.36 353.786 399.366 349.59 399.746C345.348 400.103 342.482 404.455 342.574 410.4" fill="#C2996D"/>
<path d="M357.638 272.185C357.5 266.335 354.336 262.149 350.048 262.173C345.439 262.221 342.298 266.882 342.55 273.35C342.78 278.82 345.76 282.886 349.498 282.863C354.244 282.815 357.752 278.201 357.638 272.185Z" fill="#C2996D"/>
<path d="M357.637 382.791C357.683 376.822 354.61 372.304 350.598 372.447C346.333 372.589 342.572 377.75 342.572 383.505C342.572 388.974 346.126 393.35 350.391 393.112C354.564 392.875 357.591 388.594 357.637 382.791Z" fill="#C2996D"/>
<path d="M342.523 438.201C342.706 444.028 345.825 448.142 350.113 448.118C354.698 448.118 357.863 443.457 357.633 437.084C357.45 431.543 353.873 427.405 349.585 427.762C345.206 428.142 342.34 432.351 342.523 438.178" fill="#C2996D"/>
<path d="M334.338 390.805C334.476 396.679 331.586 401.15 327.413 401.602C323.125 402.054 319.365 397.726 319.273 392.208C319.182 386.715 322.506 381.626 326.381 381.269C330.6 380.865 334.223 385.217 334.338 390.829" fill="#C2996D"/>
<path d="M414.546 309.45C414.501 303.338 417.229 298.63 420.921 298.368C424.567 298.106 429.565 304.313 429.496 308.974C429.405 314.254 425.805 319.081 421.93 319.081C417.252 319.081 414.592 315.609 414.546 309.45Z" fill="#C2996D"/>
<path d="M334.367 336.989C334.092 342.767 330.652 346.882 326.365 346.549C322.077 346.216 318.959 341.483 319.348 335.942C319.761 330.259 323.499 325.788 327.488 326.216C331.868 326.691 334.665 331.067 334.367 336.989Z" fill="#C2996D"/>
<path d="M295.52 345.074C295.588 339.795 299.349 335.371 303.499 335.728C306.663 335.99 309.575 341.126 309.484 346.287C309.392 350.948 306.526 354.705 302.857 354.943C298.615 355.205 295.451 350.948 295.52 345.074Z" fill="#C2996D"/>
<path d="M309.507 370.472C309.621 375.918 306.961 380.056 303.063 380.484C299.074 380.912 295.588 376.869 295.52 371.756C295.451 366.667 298.523 361.935 302.1 361.602C306.021 361.245 309.369 365.264 309.507 370.472Z" fill="#C2996D"/>
<path d="M309.529 320.533C309.276 325.907 306.066 329.712 302.099 329.403C298.11 329.094 295.221 324.695 295.61 319.558C296 314.278 299.463 310.14 303.154 310.545C307.213 310.997 309.804 315.039 309.552 320.533" fill="#C2996D"/>
<path d="M453.203 345.074C453.135 339.795 449.374 335.371 445.224 335.728C442.06 335.99 439.148 341.126 439.239 346.287C439.331 350.948 442.22 354.705 445.866 354.943C450.108 355.205 453.272 350.948 453.203 345.074Z" fill="#C2996D"/>
<path d="M439.22 370.472C439.106 375.918 441.766 380.056 445.664 380.484C449.653 380.912 453.139 376.869 453.207 371.756C453.276 366.667 450.203 361.935 446.627 361.602C442.706 361.245 439.358 365.264 439.22 370.472Z" fill="#C2996D"/>
<path d="M439.2 320.533C439.452 325.907 442.662 329.712 446.629 329.403C450.619 329.094 453.508 324.695 453.118 319.558C452.728 314.278 449.266 310.14 445.574 310.545C441.516 310.997 438.925 315.039 439.177 320.533" fill="#C2996D"/>
<path d="M381.117 399.652C381.117 405.454 378.205 409.687 374.032 410.02C369.881 410.353 366.006 405.05 366.167 399.271C366.327 394.253 370.157 389.473 374.101 389.354C378.044 389.235 381.117 393.754 381.117 399.652Z" fill="#C2996D"/>
<path d="M421.951 353.778C425.344 353.897 429.655 359.866 429.494 364.218C429.311 369.616 425.596 374.301 421.721 374.087C417.204 373.825 414.2 369.069 414.544 362.72C414.819 357.726 418.19 353.659 421.951 353.778Z" fill="#C2996D"/>
<path d="M381.117 317.44C381.002 322.72 378.044 327.214 374.582 327.333C370.913 327.452 365.984 321.103 366.167 316.513C366.351 311.614 370.478 306.691 374.33 306.786C378.205 306.882 381.232 311.638 381.117 317.464" fill="#C2996D"/>
<path d="M415.872 393.834C415.872 387.318 417.684 384.655 422.246 384.441C427.016 384.227 430.822 388.103 430.822 393.216C430.822 398.543 427.245 403.442 423.324 403.466C418.601 403.49 415.895 399.994 415.872 393.811" fill="#C2996D"/>
</svg>
